<mxfile host="app.diagrams.net" modified="2020-12-02T05:09:49.128Z" agent="5.0 (Windows NT 10.0; Win64; x64) AppleWebKit/537.36 (KHTML, like Gecko) Chrome/87.0.4280.66 Safari/537.36" etag="XnGH_TqdpoiMgMRy89mU" version="13.9.2" type="github">
  <diagram id="s1cw8rZkBf4w5TiTZ70j" name="Page-1">
    <mxGraphModel dx="7414" dy="3914" grid="1" gridSize="10" guides="1" tooltips="1" connect="1" arrows="1" fold="1" page="1" pageScale="1" pageWidth="6000" pageHeight="6000" math="0" shadow="0">
      <root>
        <mxCell id="0" />
        <mxCell id="1" parent="0" />
        <mxCell id="t4iPXFJpdFiJiGYDeRWr-1" value="" style="rounded=0;whiteSpace=wrap;html=1;" vertex="1" parent="1">
          <mxGeometry x="2387" y="1730" width="103" height="40" as="geometry" />
        </mxCell>
        <mxCell id="t4iPXFJpdFiJiGYDeRWr-2" value="&lt;font style=&quot;font-size: 16px&quot;&gt;Product&lt;/font&gt;&lt;font style=&quot;font-size: 16px&quot;&gt;&lt;br&gt;&lt;/font&gt;" style="text;html=1;strokeColor=none;fillColor=none;align=center;verticalAlign=middle;whiteSpace=wrap;rounded=0;" vertex="1" parent="1">
          <mxGeometry x="2430" y="1740" width="40" height="20" as="geometry" />
        </mxCell>
        <mxCell id="t4iPXFJpdFiJiGYDeRWr-3" value="" style="ellipse;whiteSpace=wrap;html=1;" vertex="1" parent="1">
          <mxGeometry x="2250" y="1710" width="100" height="40" as="geometry" />
        </mxCell>
        <mxCell id="t4iPXFJpdFiJiGYDeRWr-4" value="" style="ellipse;whiteSpace=wrap;html=1;" vertex="1" parent="1">
          <mxGeometry x="2324" y="1670" width="80" height="40" as="geometry" />
        </mxCell>
        <mxCell id="t4iPXFJpdFiJiGYDeRWr-5" value="" style="ellipse;whiteSpace=wrap;html=1;" vertex="1" parent="1">
          <mxGeometry x="2530" y="1650" width="90" height="40" as="geometry" />
        </mxCell>
        <mxCell id="t4iPXFJpdFiJiGYDeRWr-6" value="" style="ellipse;whiteSpace=wrap;html=1;" vertex="1" parent="1">
          <mxGeometry x="2560" y="1700" width="90" height="40" as="geometry" />
        </mxCell>
        <mxCell id="t4iPXFJpdFiJiGYDeRWr-7" value="" style="ellipse;whiteSpace=wrap;html=1;" vertex="1" parent="1">
          <mxGeometry x="2330" y="1610" width="90" height="30" as="geometry" />
        </mxCell>
        <mxCell id="t4iPXFJpdFiJiGYDeRWr-8" value="" style="ellipse;whiteSpace=wrap;html=1;" vertex="1" parent="1">
          <mxGeometry x="2440" y="1620" width="90" height="40" as="geometry" />
        </mxCell>
        <mxCell id="t4iPXFJpdFiJiGYDeRWr-9" value="&lt;span id=&quot;docs-internal-guid-52407e8a-7fff-cbf3-2536-1fac4d719183&quot;&gt;&lt;span style=&quot;font-size: 14pt ; font-family: &amp;#34;times new roman&amp;#34; ; background-color: transparent ; vertical-align: baseline&quot;&gt;Product_Id&lt;/span&gt;&lt;/span&gt;" style="text;html=1;strokeColor=none;fillColor=none;align=center;verticalAlign=middle;whiteSpace=wrap;rounded=0;" vertex="1" parent="1">
          <mxGeometry x="2280" y="1715" width="40" height="20" as="geometry" />
        </mxCell>
        <mxCell id="t4iPXFJpdFiJiGYDeRWr-10" value="&lt;span id=&quot;docs-internal-guid-77ab3239-7fff-6653-dc07-70a4567c1364&quot;&gt;&lt;span style=&quot;font-size: 14pt ; font-family: &amp;#34;times new roman&amp;#34; ; background-color: transparent ; vertical-align: baseline&quot;&gt;Price&lt;/span&gt;&lt;/span&gt;" style="text;html=1;strokeColor=none;fillColor=none;align=center;verticalAlign=middle;whiteSpace=wrap;rounded=0;" vertex="1" parent="1">
          <mxGeometry x="2344" y="1680" width="40" height="20" as="geometry" />
        </mxCell>
        <mxCell id="t4iPXFJpdFiJiGYDeRWr-11" value="&lt;span id=&quot;docs-internal-guid-4e54380a-7fff-bb57-83b4-be8a0f64f4e9&quot;&gt;&lt;span style=&quot;font-size: 14pt ; font-family: &amp;#34;times new roman&amp;#34; ; background-color: transparent ; vertical-align: baseline&quot;&gt;Stock&lt;/span&gt;&lt;/span&gt;" style="text;html=1;strokeColor=none;fillColor=none;align=center;verticalAlign=middle;whiteSpace=wrap;rounded=0;" vertex="1" parent="1">
          <mxGeometry x="2465" y="1630" width="40" height="20" as="geometry" />
        </mxCell>
        <mxCell id="t4iPXFJpdFiJiGYDeRWr-12" value="&lt;span id=&quot;docs-internal-guid-1fa22a7b-7fff-ead4-82f6-f13e5b7c12e8&quot;&gt;&lt;span style=&quot;font-size: 14pt ; font-family: &amp;#34;times new roman&amp;#34; ; background-color: transparent ; vertical-align: baseline&quot;&gt;Sold&lt;/span&gt;&lt;/span&gt;" style="text;html=1;strokeColor=none;fillColor=none;align=center;verticalAlign=middle;whiteSpace=wrap;rounded=0;" vertex="1" parent="1">
          <mxGeometry x="2555" y="1660" width="40" height="20" as="geometry" />
        </mxCell>
        <mxCell id="t4iPXFJpdFiJiGYDeRWr-13" value="&lt;span id=&quot;docs-internal-guid-fe8abb5e-7fff-1b7b-80ea-8a018e37618a&quot;&gt;&lt;span style=&quot;font-size: 14pt ; font-family: &amp;#34;times new roman&amp;#34; ; background-color: transparent ; vertical-align: baseline&quot;&gt;T_Id&lt;/span&gt;&lt;/span&gt;" style="text;html=1;strokeColor=none;fillColor=none;align=center;verticalAlign=middle;whiteSpace=wrap;rounded=0;" vertex="1" parent="1">
          <mxGeometry x="2590" y="1710" width="40" height="20" as="geometry" />
        </mxCell>
        <mxCell id="t4iPXFJpdFiJiGYDeRWr-14" value="" style="endArrow=none;html=1;entryX=0.5;entryY=1;entryDx=0;entryDy=0;exitX=0.655;exitY=0.017;exitDx=0;exitDy=0;exitPerimeter=0;" edge="1" parent="1" source="t4iPXFJpdFiJiGYDeRWr-1" target="t4iPXFJpdFiJiGYDeRWr-8">
          <mxGeometry width="50" height="50" relative="1" as="geometry">
            <mxPoint x="2590" y="1770" as="sourcePoint" />
            <mxPoint x="2640" y="1720" as="targetPoint" />
          </mxGeometry>
        </mxCell>
        <mxCell id="t4iPXFJpdFiJiGYDeRWr-15" value="" style="endArrow=none;html=1;exitX=1;exitY=0;exitDx=0;exitDy=0;" edge="1" parent="1" source="t4iPXFJpdFiJiGYDeRWr-1">
          <mxGeometry width="50" height="50" relative="1" as="geometry">
            <mxPoint x="2590" y="1770" as="sourcePoint" />
            <mxPoint x="2560" y="1720" as="targetPoint" />
          </mxGeometry>
        </mxCell>
        <mxCell id="t4iPXFJpdFiJiGYDeRWr-16" value="" style="endArrow=none;html=1;exitX=0.043;exitY=0.707;exitDx=0;exitDy=0;exitPerimeter=0;entryX=0.75;entryY=0;entryDx=0;entryDy=0;" edge="1" parent="1" source="t4iPXFJpdFiJiGYDeRWr-5" target="t4iPXFJpdFiJiGYDeRWr-1">
          <mxGeometry width="50" height="50" relative="1" as="geometry">
            <mxPoint x="2590" y="1770" as="sourcePoint" />
            <mxPoint x="2640" y="1720" as="targetPoint" />
          </mxGeometry>
        </mxCell>
        <mxCell id="t4iPXFJpdFiJiGYDeRWr-17" value="" style="endArrow=none;html=1;entryX=1;entryY=1;entryDx=0;entryDy=0;exitX=0.417;exitY=0.017;exitDx=0;exitDy=0;exitPerimeter=0;" edge="1" parent="1" source="t4iPXFJpdFiJiGYDeRWr-1" target="t4iPXFJpdFiJiGYDeRWr-4">
          <mxGeometry width="50" height="50" relative="1" as="geometry">
            <mxPoint x="2590" y="1770" as="sourcePoint" />
            <mxPoint x="2640" y="1720" as="targetPoint" />
          </mxGeometry>
        </mxCell>
        <mxCell id="t4iPXFJpdFiJiGYDeRWr-18" value="" style="endArrow=none;html=1;entryX=1;entryY=0.5;entryDx=0;entryDy=0;exitX=0;exitY=0.25;exitDx=0;exitDy=0;" edge="1" parent="1" source="t4iPXFJpdFiJiGYDeRWr-1" target="t4iPXFJpdFiJiGYDeRWr-3">
          <mxGeometry width="50" height="50" relative="1" as="geometry">
            <mxPoint x="2590" y="1770" as="sourcePoint" />
            <mxPoint x="2640" y="1720" as="targetPoint" />
          </mxGeometry>
        </mxCell>
        <mxCell id="t4iPXFJpdFiJiGYDeRWr-19" value="" style="endArrow=none;html=1;exitX=0;exitY=1;exitDx=0;exitDy=0;" edge="1" parent="1">
          <mxGeometry width="50" height="50" relative="1" as="geometry">
            <mxPoint x="2268.6446609406726" y="1741.2132034355966" as="sourcePoint" />
            <mxPoint x="2334" y="1740" as="targetPoint" />
            <Array as="points">
              <mxPoint x="2294" y="1740" />
            </Array>
          </mxGeometry>
        </mxCell>
        <mxCell id="t4iPXFJpdFiJiGYDeRWr-20" style="edgeStyle=orthogonalEdgeStyle;rounded=0;orthogonalLoop=1;jettySize=auto;html=1;exitX=0.25;exitY=0;exitDx=0;exitDy=0;entryX=0;entryY=0.25;entryDx=0;entryDy=0;shadow=0;opacity=30;" edge="1" parent="1" source="t4iPXFJpdFiJiGYDeRWr-13" target="t4iPXFJpdFiJiGYDeRWr-13">
          <mxGeometry relative="1" as="geometry" />
        </mxCell>
        <mxCell id="t4iPXFJpdFiJiGYDeRWr-21" value="&lt;span id=&quot;docs-internal-guid-84cdcf9b-7fff-4355-09eb-947d76654720&quot;&gt;&lt;span style=&quot;font-size: 14pt ; font-family: &amp;#34;times new roman&amp;#34; ; background-color: transparent ; vertical-align: baseline&quot;&gt;Detail&lt;/span&gt;&lt;/span&gt;" style="text;html=1;strokeColor=none;fillColor=none;align=center;verticalAlign=middle;whiteSpace=wrap;rounded=0;" vertex="1" parent="1">
          <mxGeometry x="2358" y="1612" width="40" height="20" as="geometry" />
        </mxCell>
        <mxCell id="t4iPXFJpdFiJiGYDeRWr-22" value="" style="endArrow=none;html=1;entryX=0.746;entryY=1.081;entryDx=0;entryDy=0;entryPerimeter=0;" edge="1" parent="1" source="t4iPXFJpdFiJiGYDeRWr-1" target="t4iPXFJpdFiJiGYDeRWr-7">
          <mxGeometry width="50" height="50" relative="1" as="geometry">
            <mxPoint x="2423.5714285714284" y="1730" as="sourcePoint" />
            <mxPoint x="2415" y="1610" as="targetPoint" />
          </mxGeometry>
        </mxCell>
        <mxCell id="t4iPXFJpdFiJiGYDeRWr-23" value="" style="rounded=0;whiteSpace=wrap;html=1;" vertex="1" parent="1">
          <mxGeometry x="3090" y="1730" width="90" height="40" as="geometry" />
        </mxCell>
        <mxCell id="t4iPXFJpdFiJiGYDeRWr-24" style="edgeStyle=orthogonalEdgeStyle;rounded=0;orthogonalLoop=1;jettySize=auto;html=1;entryX=0;entryY=0.5;entryDx=0;entryDy=0;shadow=0;startArrow=none;startFill=0;startSize=5;endArrow=none;endFill=0;strokeColor=#000000;" edge="1" parent="1" target="t4iPXFJpdFiJiGYDeRWr-130">
          <mxGeometry relative="1" as="geometry">
            <mxPoint x="3180" y="1750" as="sourcePoint" />
          </mxGeometry>
        </mxCell>
        <mxCell id="t4iPXFJpdFiJiGYDeRWr-25" value="&lt;font style=&quot;font-size: 16px&quot;&gt;Cart&lt;br&gt;&lt;/font&gt;" style="text;html=1;strokeColor=none;fillColor=none;align=center;verticalAlign=middle;whiteSpace=wrap;rounded=0;" vertex="1" parent="1">
          <mxGeometry x="3115" y="1740" width="40" height="20" as="geometry" />
        </mxCell>
        <mxCell id="t4iPXFJpdFiJiGYDeRWr-26" value="" style="ellipse;whiteSpace=wrap;html=1;" vertex="1" parent="1">
          <mxGeometry x="2920" y="1690" width="100" height="40" as="geometry" />
        </mxCell>
        <mxCell id="t4iPXFJpdFiJiGYDeRWr-27" value="" style="ellipse;whiteSpace=wrap;html=1;" vertex="1" parent="1">
          <mxGeometry x="3020" y="1670" width="110" height="40" as="geometry" />
        </mxCell>
        <mxCell id="t4iPXFJpdFiJiGYDeRWr-28" value="" style="ellipse;whiteSpace=wrap;html=1;" vertex="1" parent="1">
          <mxGeometry x="3200" y="1680" width="150" height="40" as="geometry" />
        </mxCell>
        <mxCell id="t4iPXFJpdFiJiGYDeRWr-29" value="" style="ellipse;whiteSpace=wrap;html=1;" vertex="1" parent="1">
          <mxGeometry x="3090" y="1630" width="140" height="40" as="geometry" />
        </mxCell>
        <mxCell id="t4iPXFJpdFiJiGYDeRWr-30" value="&lt;span id=&quot;docs-internal-guid-52407e8a-7fff-cbf3-2536-1fac4d719183&quot;&gt;&lt;span style=&quot;font-size: 14pt ; font-family: &amp;#34;times new roman&amp;#34; ; background-color: transparent ; vertical-align: baseline&quot;&gt;Cart_Id&lt;/span&gt;&lt;/span&gt;" style="text;html=1;strokeColor=none;fillColor=none;align=center;verticalAlign=middle;whiteSpace=wrap;rounded=0;" vertex="1" parent="1">
          <mxGeometry x="2950" y="1695" width="40" height="20" as="geometry" />
        </mxCell>
        <mxCell id="t4iPXFJpdFiJiGYDeRWr-31" value="&lt;span id=&quot;docs-internal-guid-77ab3239-7fff-6653-dc07-70a4567c1364&quot;&gt;&lt;span style=&quot;font-size: 14pt ; font-family: &amp;#34;times new roman&amp;#34; ; background-color: transparent ; vertical-align: baseline&quot;&gt;Product_Id&lt;/span&gt;&lt;/span&gt;" style="text;html=1;strokeColor=none;fillColor=none;align=center;verticalAlign=middle;whiteSpace=wrap;rounded=0;" vertex="1" parent="1">
          <mxGeometry x="3054" y="1680" width="40" height="20" as="geometry" />
        </mxCell>
        <mxCell id="t4iPXFJpdFiJiGYDeRWr-32" value="&lt;span id=&quot;docs-internal-guid-f2ca6896-7fff-c282-03e5-d2eb94d20334&quot;&gt;&lt;span style=&quot;font-size: 14pt ; font-family: &amp;#34;times new roman&amp;#34; ; background-color: transparent ; vertical-align: baseline&quot;&gt;Total_Amount&lt;/span&gt;&lt;/span&gt;" style="text;html=1;strokeColor=none;fillColor=none;align=center;verticalAlign=middle;whiteSpace=wrap;rounded=0;" vertex="1" parent="1">
          <mxGeometry x="3120" y="1640" width="95" height="20" as="geometry" />
        </mxCell>
        <mxCell id="t4iPXFJpdFiJiGYDeRWr-33" value="&lt;span id=&quot;docs-internal-guid-baefef16-7fff-118e-0051-b42a2cbbd142&quot;&gt;&lt;span style=&quot;font-size: 14pt ; font-family: &amp;#34;times new roman&amp;#34; ; background-color: transparent ; vertical-align: baseline&quot;&gt;Delivery_Charges&lt;/span&gt;&lt;/span&gt;" style="text;html=1;strokeColor=none;fillColor=none;align=center;verticalAlign=middle;whiteSpace=wrap;rounded=0;" vertex="1" parent="1">
          <mxGeometry x="3259" y="1690" width="40" height="20" as="geometry" />
        </mxCell>
        <mxCell id="t4iPXFJpdFiJiGYDeRWr-34" value="" style="endArrow=none;html=1;entryX=0.5;entryY=1;entryDx=0;entryDy=0;exitX=0.655;exitY=0.017;exitDx=0;exitDy=0;exitPerimeter=0;" edge="1" parent="1" source="t4iPXFJpdFiJiGYDeRWr-23" target="t4iPXFJpdFiJiGYDeRWr-29">
          <mxGeometry width="50" height="50" relative="1" as="geometry">
            <mxPoint x="3300" y="1770" as="sourcePoint" />
            <mxPoint x="3350" y="1720" as="targetPoint" />
          </mxGeometry>
        </mxCell>
        <mxCell id="t4iPXFJpdFiJiGYDeRWr-35" value="" style="endArrow=none;html=1;exitX=0.043;exitY=0.707;exitDx=0;exitDy=0;exitPerimeter=0;entryX=0.75;entryY=0;entryDx=0;entryDy=0;" edge="1" parent="1" source="t4iPXFJpdFiJiGYDeRWr-28" target="t4iPXFJpdFiJiGYDeRWr-23">
          <mxGeometry width="50" height="50" relative="1" as="geometry">
            <mxPoint x="3300" y="1770" as="sourcePoint" />
            <mxPoint x="3350" y="1720" as="targetPoint" />
          </mxGeometry>
        </mxCell>
        <mxCell id="t4iPXFJpdFiJiGYDeRWr-36" value="" style="endArrow=none;html=1;entryX=1;entryY=1;entryDx=0;entryDy=0;exitX=0.417;exitY=0.017;exitDx=0;exitDy=0;exitPerimeter=0;" edge="1" parent="1" source="t4iPXFJpdFiJiGYDeRWr-23" target="t4iPXFJpdFiJiGYDeRWr-27">
          <mxGeometry width="50" height="50" relative="1" as="geometry">
            <mxPoint x="3300" y="1770" as="sourcePoint" />
            <mxPoint x="3350" y="1720" as="targetPoint" />
          </mxGeometry>
        </mxCell>
        <mxCell id="t4iPXFJpdFiJiGYDeRWr-37" value="" style="endArrow=none;html=1;entryX=1;entryY=0.5;entryDx=0;entryDy=0;exitX=0;exitY=0.25;exitDx=0;exitDy=0;" edge="1" parent="1" source="t4iPXFJpdFiJiGYDeRWr-23" target="t4iPXFJpdFiJiGYDeRWr-26">
          <mxGeometry width="50" height="50" relative="1" as="geometry">
            <mxPoint x="3300" y="1770" as="sourcePoint" />
            <mxPoint x="3350" y="1720" as="targetPoint" />
          </mxGeometry>
        </mxCell>
        <mxCell id="t4iPXFJpdFiJiGYDeRWr-38" style="edgeStyle=orthogonalEdgeStyle;rounded=0;orthogonalLoop=1;jettySize=auto;html=1;entryX=0;entryY=0.5;entryDx=0;entryDy=0;shadow=0;startArrow=none;startFill=0;startSize=5;endArrow=none;endFill=0;strokeColor=#000000;" edge="1" parent="1" source="t4iPXFJpdFiJiGYDeRWr-39" target="t4iPXFJpdFiJiGYDeRWr-99">
          <mxGeometry relative="1" as="geometry" />
        </mxCell>
        <mxCell id="t4iPXFJpdFiJiGYDeRWr-39" value="" style="rounded=0;whiteSpace=wrap;html=1;" vertex="1" parent="1">
          <mxGeometry x="3201.36" y="2068" width="80" height="40" as="geometry" />
        </mxCell>
        <mxCell id="t4iPXFJpdFiJiGYDeRWr-40" style="edgeStyle=orthogonalEdgeStyle;rounded=0;orthogonalLoop=1;jettySize=auto;html=1;entryX=0;entryY=0.5;entryDx=0;entryDy=0;shadow=0;startArrow=none;startFill=0;startSize=5;endArrow=none;endFill=0;strokeColor=#000000;" edge="1" parent="1" target="t4iPXFJpdFiJiGYDeRWr-117">
          <mxGeometry relative="1" as="geometry">
            <mxPoint x="3241" y="2110" as="sourcePoint" />
            <Array as="points">
              <mxPoint x="3241" y="2282" />
            </Array>
          </mxGeometry>
        </mxCell>
        <mxCell id="t4iPXFJpdFiJiGYDeRWr-41" value="&lt;font style=&quot;font-size: 16px&quot;&gt;Order&lt;br&gt;&lt;/font&gt;" style="text;html=1;strokeColor=none;fillColor=none;align=center;verticalAlign=middle;whiteSpace=wrap;rounded=0;" vertex="1" parent="1">
          <mxGeometry x="3221.36" y="2078" width="40" height="20" as="geometry" />
        </mxCell>
        <mxCell id="t4iPXFJpdFiJiGYDeRWr-42" value="" style="ellipse;whiteSpace=wrap;html=1;" vertex="1" parent="1">
          <mxGeometry x="3081.36" y="2008" width="100" height="40" as="geometry" />
        </mxCell>
        <mxCell id="t4iPXFJpdFiJiGYDeRWr-43" value="" style="ellipse;whiteSpace=wrap;html=1;" vertex="1" parent="1">
          <mxGeometry x="3331.36" y="1974" width="90" height="40" as="geometry" />
        </mxCell>
        <mxCell id="t4iPXFJpdFiJiGYDeRWr-44" value="" style="ellipse;whiteSpace=wrap;html=1;" vertex="1" parent="1">
          <mxGeometry x="3361.36" y="2024" width="90" height="40" as="geometry" />
        </mxCell>
        <mxCell id="t4iPXFJpdFiJiGYDeRWr-45" value="" style="ellipse;whiteSpace=wrap;html=1;" vertex="1" parent="1">
          <mxGeometry x="3148.1800000000003" y="1968" width="90" height="30" as="geometry" />
        </mxCell>
        <mxCell id="t4iPXFJpdFiJiGYDeRWr-46" value="" style="ellipse;whiteSpace=wrap;html=1;" vertex="1" parent="1">
          <mxGeometry x="3266.1800000000003" y="1936" width="90" height="40" as="geometry" />
        </mxCell>
        <mxCell id="t4iPXFJpdFiJiGYDeRWr-47" value="&lt;span id=&quot;docs-internal-guid-77ab3239-7fff-6653-dc07-70a4567c1364&quot;&gt;&lt;span style=&quot;font-size: 14pt ; font-family: &amp;#34;times new roman&amp;#34; ; background-color: transparent ; vertical-align: baseline&quot;&gt;Product_Id&lt;/span&gt;&lt;/span&gt;" style="text;html=1;strokeColor=none;fillColor=none;align=center;verticalAlign=middle;whiteSpace=wrap;rounded=0;" vertex="1" parent="1">
          <mxGeometry x="3115.36" y="2018" width="40" height="20" as="geometry" />
        </mxCell>
        <mxCell id="t4iPXFJpdFiJiGYDeRWr-48" value="&lt;span id=&quot;docs-internal-guid-ff9833c6-7fff-4b99-b171-f6fb1d8c974a&quot;&gt;&lt;span style=&quot;font-size: 14pt ; font-family: &amp;#34;times new roman&amp;#34; ; background-color: transparent ; vertical-align: baseline&quot;&gt;Status&lt;/span&gt;&lt;/span&gt;" style="text;html=1;strokeColor=none;fillColor=none;align=center;verticalAlign=middle;whiteSpace=wrap;rounded=0;" vertex="1" parent="1">
          <mxGeometry x="3291.1800000000003" y="1946" width="40" height="20" as="geometry" />
        </mxCell>
        <mxCell id="t4iPXFJpdFiJiGYDeRWr-49" value="&lt;span id=&quot;docs-internal-guid-f2967f29-7fff-6dd1-11c2-6718a5f1cecf&quot;&gt;&lt;span style=&quot;font-size: 14pt ; font-family: &amp;#34;times new roman&amp;#34; ; background-color: transparent ; vertical-align: baseline&quot;&gt;Date&lt;/span&gt;&lt;/span&gt;" style="text;html=1;strokeColor=none;fillColor=none;align=center;verticalAlign=middle;whiteSpace=wrap;rounded=0;" vertex="1" parent="1">
          <mxGeometry x="3356.36" y="1984" width="40" height="20" as="geometry" />
        </mxCell>
        <mxCell id="t4iPXFJpdFiJiGYDeRWr-50" value="&lt;span id=&quot;docs-internal-guid-a0acf873-7fff-8d3f-207a-eaa01f1dc518&quot;&gt;&lt;span style=&quot;font-size: 14pt ; font-family: &amp;#34;times new roman&amp;#34; ; background-color: transparent ; vertical-align: baseline&quot;&gt;Seller_Id&lt;/span&gt;&lt;/span&gt;" style="text;html=1;strokeColor=none;fillColor=none;align=center;verticalAlign=middle;whiteSpace=wrap;rounded=0;" vertex="1" parent="1">
          <mxGeometry x="3391.36" y="2034" width="40" height="20" as="geometry" />
        </mxCell>
        <mxCell id="t4iPXFJpdFiJiGYDeRWr-51" value="" style="endArrow=none;html=1;entryX=0.5;entryY=1;entryDx=0;entryDy=0;exitX=0.655;exitY=0.017;exitDx=0;exitDy=0;exitPerimeter=0;" edge="1" parent="1" source="t4iPXFJpdFiJiGYDeRWr-39" target="t4iPXFJpdFiJiGYDeRWr-46">
          <mxGeometry width="50" height="50" relative="1" as="geometry">
            <mxPoint x="3421.36" y="2108" as="sourcePoint" />
            <mxPoint x="3471.36" y="2058" as="targetPoint" />
          </mxGeometry>
        </mxCell>
        <mxCell id="t4iPXFJpdFiJiGYDeRWr-52" value="" style="endArrow=none;html=1;exitX=1;exitY=0;exitDx=0;exitDy=0;" edge="1" parent="1" source="t4iPXFJpdFiJiGYDeRWr-39">
          <mxGeometry width="50" height="50" relative="1" as="geometry">
            <mxPoint x="3251.3600000000006" y="2054" as="sourcePoint" />
            <mxPoint x="3361.36" y="2044" as="targetPoint" />
          </mxGeometry>
        </mxCell>
        <mxCell id="t4iPXFJpdFiJiGYDeRWr-53" value="" style="endArrow=none;html=1;exitX=0.043;exitY=0.707;exitDx=0;exitDy=0;exitPerimeter=0;entryX=0.75;entryY=0;entryDx=0;entryDy=0;" edge="1" parent="1" source="t4iPXFJpdFiJiGYDeRWr-43" target="t4iPXFJpdFiJiGYDeRWr-39">
          <mxGeometry width="50" height="50" relative="1" as="geometry">
            <mxPoint x="3421.36" y="2108" as="sourcePoint" />
            <mxPoint x="3471.36" y="2058" as="targetPoint" />
          </mxGeometry>
        </mxCell>
        <mxCell id="t4iPXFJpdFiJiGYDeRWr-54" value="" style="endArrow=none;html=1;entryX=1;entryY=1;entryDx=0;entryDy=0;exitX=0.417;exitY=0.017;exitDx=0;exitDy=0;exitPerimeter=0;" edge="1" parent="1" source="t4iPXFJpdFiJiGYDeRWr-39" target="t4iPXFJpdFiJiGYDeRWr-42">
          <mxGeometry width="50" height="50" relative="1" as="geometry">
            <mxPoint x="3421.36" y="2108" as="sourcePoint" />
            <mxPoint x="3471.36" y="2058" as="targetPoint" />
          </mxGeometry>
        </mxCell>
        <mxCell id="t4iPXFJpdFiJiGYDeRWr-55" value="" style="endArrow=none;html=1;entryX=1;entryY=0.5;entryDx=0;entryDy=0;exitX=0;exitY=0.25;exitDx=0;exitDy=0;" edge="1" parent="1" source="t4iPXFJpdFiJiGYDeRWr-39" target="t4iPXFJpdFiJiGYDeRWr-62">
          <mxGeometry width="50" height="50" relative="1" as="geometry">
            <mxPoint x="3421.36" y="2108" as="sourcePoint" />
            <mxPoint x="3181.3600000000047" y="2068" as="targetPoint" />
          </mxGeometry>
        </mxCell>
        <mxCell id="t4iPXFJpdFiJiGYDeRWr-56" style="edgeStyle=orthogonalEdgeStyle;rounded=0;orthogonalLoop=1;jettySize=auto;html=1;exitX=0.25;exitY=0;exitDx=0;exitDy=0;entryX=0;entryY=0.25;entryDx=0;entryDy=0;shadow=0;opacity=30;" edge="1" parent="1" source="t4iPXFJpdFiJiGYDeRWr-50" target="t4iPXFJpdFiJiGYDeRWr-50">
          <mxGeometry relative="1" as="geometry" />
        </mxCell>
        <mxCell id="t4iPXFJpdFiJiGYDeRWr-57" value="&lt;span id=&quot;docs-internal-guid-80ae62ff-7fff-0101-c7de-895944b1ee72&quot;&gt;&lt;span style=&quot;font-size: 14pt ; font-family: &amp;#34;times new roman&amp;#34; ; background-color: transparent ; vertical-align: baseline&quot;&gt;Amount&lt;/span&gt;&lt;/span&gt;" style="text;html=1;strokeColor=none;fillColor=none;align=center;verticalAlign=middle;whiteSpace=wrap;rounded=0;" vertex="1" parent="1">
          <mxGeometry x="3176.1800000000003" y="1970" width="40" height="20" as="geometry" />
        </mxCell>
        <mxCell id="t4iPXFJpdFiJiGYDeRWr-58" value="" style="endArrow=none;html=1;entryX=0.746;entryY=1.081;entryDx=0;entryDy=0;entryPerimeter=0;" edge="1" parent="1" source="t4iPXFJpdFiJiGYDeRWr-39" target="t4iPXFJpdFiJiGYDeRWr-45">
          <mxGeometry width="50" height="50" relative="1" as="geometry">
            <mxPoint x="3254.9314285714286" y="2068" as="sourcePoint" />
            <mxPoint x="3246.36" y="1948" as="targetPoint" />
          </mxGeometry>
        </mxCell>
        <mxCell id="t4iPXFJpdFiJiGYDeRWr-59" style="edgeStyle=orthogonalEdgeStyle;rounded=0;orthogonalLoop=1;jettySize=auto;html=1;entryX=1;entryY=0.5;entryDx=0;entryDy=0;shadow=0;startArrow=none;startFill=0;endArrow=none;endFill=0;strokeColor=#000000;" edge="1" parent="1" source="t4iPXFJpdFiJiGYDeRWr-61" target="t4iPXFJpdFiJiGYDeRWr-1">
          <mxGeometry relative="1" as="geometry" />
        </mxCell>
        <mxCell id="t4iPXFJpdFiJiGYDeRWr-60" style="edgeStyle=orthogonalEdgeStyle;rounded=0;orthogonalLoop=1;jettySize=auto;html=1;entryX=0;entryY=0.5;entryDx=0;entryDy=0;shadow=0;startArrow=none;startFill=0;endArrow=none;endFill=0;strokeColor=#000000;" edge="1" parent="1" target="t4iPXFJpdFiJiGYDeRWr-23">
          <mxGeometry relative="1" as="geometry">
            <mxPoint x="2790" y="1750" as="sourcePoint" />
          </mxGeometry>
        </mxCell>
        <mxCell id="t4iPXFJpdFiJiGYDeRWr-61" value="Add in" style="rhombus;whiteSpace=wrap;html=1;shadow=0;" vertex="1" parent="1">
          <mxGeometry x="2800" y="1710" width="80" height="80" as="geometry" />
        </mxCell>
        <mxCell id="t4iPXFJpdFiJiGYDeRWr-62" value="Order_Id" style="ellipse;whiteSpace=wrap;html=1;" vertex="1" parent="1">
          <mxGeometry x="3070" y="2054" width="100" height="40" as="geometry" />
        </mxCell>
        <mxCell id="t4iPXFJpdFiJiGYDeRWr-63" value="Category" style="rounded=0;whiteSpace=wrap;html=1;" vertex="1" parent="1">
          <mxGeometry x="2390" y="1360" width="80" height="40" as="geometry" />
        </mxCell>
        <mxCell id="t4iPXFJpdFiJiGYDeRWr-64" value="Sub-Category" style="rounded=0;whiteSpace=wrap;html=1;" vertex="1" parent="1">
          <mxGeometry x="2690" y="1360" width="90" height="40" as="geometry" />
        </mxCell>
        <mxCell id="t4iPXFJpdFiJiGYDeRWr-65" value="&lt;span id=&quot;docs-internal-guid-099eb12b-7fff-39af-aab9-398033733576&quot;&gt;&lt;span style=&quot;font-size: 14pt ; font-family: &amp;#34;times new roman&amp;#34; ; background-color: transparent ; vertical-align: baseline&quot;&gt;&lt;u&gt;Category_Id&lt;/u&gt;&lt;/span&gt;&lt;/span&gt;" style="ellipse;whiteSpace=wrap;html=1;" vertex="1" parent="1">
          <mxGeometry x="2280" y="1290" width="120" height="40" as="geometry" />
        </mxCell>
        <mxCell id="t4iPXFJpdFiJiGYDeRWr-66" value="" style="endArrow=none;html=1;shadow=0;strokeColor=#000000;exitX=0.583;exitY=1.025;exitDx=0;exitDy=0;exitPerimeter=0;" edge="1" parent="1" source="t4iPXFJpdFiJiGYDeRWr-65" target="t4iPXFJpdFiJiGYDeRWr-63">
          <mxGeometry width="50" height="50" relative="1" as="geometry">
            <mxPoint x="2260" y="1310" as="sourcePoint" />
            <mxPoint x="2310" y="1260" as="targetPoint" />
          </mxGeometry>
        </mxCell>
        <mxCell id="t4iPXFJpdFiJiGYDeRWr-67" value="&lt;span id=&quot;docs-internal-guid-099eb12b-7fff-39af-aab9-398033733576&quot;&gt;&lt;span style=&quot;font-size: 14pt ; font-family: &amp;#34;times new roman&amp;#34; ; background-color: transparent ; vertical-align: baseline&quot;&gt;&lt;u&gt;Category_Name&lt;/u&gt;&lt;/span&gt;&lt;/span&gt;" style="ellipse;whiteSpace=wrap;html=1;" vertex="1" parent="1">
          <mxGeometry x="2430" y="1280" width="150" height="40" as="geometry" />
        </mxCell>
        <mxCell id="t4iPXFJpdFiJiGYDeRWr-68" value="" style="endArrow=none;html=1;shadow=0;strokeColor=#000000;entryX=0.5;entryY=1;entryDx=0;entryDy=0;exitX=0.75;exitY=0;exitDx=0;exitDy=0;" edge="1" parent="1" source="t4iPXFJpdFiJiGYDeRWr-63" target="t4iPXFJpdFiJiGYDeRWr-67">
          <mxGeometry width="50" height="50" relative="1" as="geometry">
            <mxPoint x="2260" y="1310" as="sourcePoint" />
            <mxPoint x="2310" y="1260" as="targetPoint" />
          </mxGeometry>
        </mxCell>
        <mxCell id="t4iPXFJpdFiJiGYDeRWr-69" value="&lt;span id=&quot;docs-internal-guid-099eb12b-7fff-39af-aab9-398033733576&quot;&gt;&lt;span style=&quot;font-size: 14pt ; font-family: &amp;#34;times new roman&amp;#34; ; background-color: transparent ; vertical-align: baseline&quot;&gt;&lt;u&gt;Sub-Category_Id&lt;/u&gt;&lt;/span&gt;&lt;/span&gt;" style="ellipse;whiteSpace=wrap;html=1;" vertex="1" parent="1">
          <mxGeometry x="2640" y="1290" width="150" height="40" as="geometry" />
        </mxCell>
        <mxCell id="t4iPXFJpdFiJiGYDeRWr-70" value="&lt;span id=&quot;docs-internal-guid-a391a374-7fff-23b1-5f64-b4b52b5a8403&quot;&gt;&lt;span style=&quot;font-size: 14pt ; font-family: &amp;#34;times new roman&amp;#34; ; background-color: transparent ; vertical-align: baseline&quot;&gt;Sub_Category_Name&lt;/span&gt;&lt;/span&gt;" style="ellipse;whiteSpace=wrap;html=1;" vertex="1" parent="1">
          <mxGeometry x="2830" y="1290" width="190" height="40" as="geometry" />
        </mxCell>
        <mxCell id="t4iPXFJpdFiJiGYDeRWr-71" value="" style="endArrow=none;html=1;shadow=0;strokeColor=#000000;entryX=0.5;entryY=0;entryDx=0;entryDy=0;" edge="1" parent="1" target="t4iPXFJpdFiJiGYDeRWr-64">
          <mxGeometry width="50" height="50" relative="1" as="geometry">
            <mxPoint x="2704" y="1332" as="sourcePoint" />
            <mxPoint x="2750" y="1250" as="targetPoint" />
          </mxGeometry>
        </mxCell>
        <mxCell id="t4iPXFJpdFiJiGYDeRWr-72" value="" style="endArrow=none;html=1;shadow=0;strokeColor=#000000;entryX=0.5;entryY=1;entryDx=0;entryDy=0;exitX=1;exitY=0;exitDx=0;exitDy=0;" edge="1" parent="1" source="t4iPXFJpdFiJiGYDeRWr-64" target="t4iPXFJpdFiJiGYDeRWr-70">
          <mxGeometry width="50" height="50" relative="1" as="geometry">
            <mxPoint x="2700" y="1300" as="sourcePoint" />
            <mxPoint x="2750" y="1250" as="targetPoint" />
          </mxGeometry>
        </mxCell>
        <mxCell id="t4iPXFJpdFiJiGYDeRWr-73" style="edgeStyle=orthogonalEdgeStyle;rounded=0;orthogonalLoop=1;jettySize=auto;html=1;shadow=0;startArrow=none;startFill=0;endArrow=none;endFill=0;strokeColor=#000000;" edge="1" parent="1" source="t4iPXFJpdFiJiGYDeRWr-75" target="t4iPXFJpdFiJiGYDeRWr-63">
          <mxGeometry relative="1" as="geometry" />
        </mxCell>
        <mxCell id="t4iPXFJpdFiJiGYDeRWr-74" style="edgeStyle=orthogonalEdgeStyle;rounded=0;orthogonalLoop=1;jettySize=auto;html=1;entryX=0;entryY=0.5;entryDx=0;entryDy=0;shadow=0;startArrow=none;startFill=0;endArrow=none;endFill=0;strokeColor=#000000;" edge="1" parent="1" source="t4iPXFJpdFiJiGYDeRWr-75" target="t4iPXFJpdFiJiGYDeRWr-64">
          <mxGeometry relative="1" as="geometry" />
        </mxCell>
        <mxCell id="t4iPXFJpdFiJiGYDeRWr-75" value="Has" style="rhombus;whiteSpace=wrap;html=1;shadow=0;" vertex="1" parent="1">
          <mxGeometry x="2550" y="1350" width="60" height="60" as="geometry" />
        </mxCell>
        <mxCell id="t4iPXFJpdFiJiGYDeRWr-76" style="edgeStyle=orthogonalEdgeStyle;rounded=0;orthogonalLoop=1;jettySize=auto;html=1;shadow=0;startArrow=none;startFill=0;endArrow=none;endFill=0;strokeColor=#000000;" edge="1" parent="1" source="t4iPXFJpdFiJiGYDeRWr-78">
          <mxGeometry relative="1" as="geometry">
            <mxPoint x="2435" y="1730" as="targetPoint" />
          </mxGeometry>
        </mxCell>
        <mxCell id="t4iPXFJpdFiJiGYDeRWr-77" style="edgeStyle=orthogonalEdgeStyle;rounded=0;orthogonalLoop=1;jettySize=auto;html=1;entryX=0.5;entryY=1;entryDx=0;entryDy=0;shadow=0;startArrow=none;startFill=0;endArrow=none;endFill=0;strokeColor=#000000;" edge="1" parent="1" source="t4iPXFJpdFiJiGYDeRWr-78" target="t4iPXFJpdFiJiGYDeRWr-63">
          <mxGeometry relative="1" as="geometry" />
        </mxCell>
        <mxCell id="t4iPXFJpdFiJiGYDeRWr-78" value="Has" style="rhombus;whiteSpace=wrap;html=1;" vertex="1" parent="1">
          <mxGeometry x="2395" y="1480" width="70" height="80" as="geometry" />
        </mxCell>
        <mxCell id="t4iPXFJpdFiJiGYDeRWr-79" style="edgeStyle=orthogonalEdgeStyle;rounded=0;orthogonalLoop=1;jettySize=auto;html=1;entryX=0.75;entryY=1;entryDx=0;entryDy=0;shadow=0;startArrow=none;startFill=0;endArrow=none;endFill=0;strokeColor=#000000;" edge="1" parent="1" source="t4iPXFJpdFiJiGYDeRWr-81" target="t4iPXFJpdFiJiGYDeRWr-23">
          <mxGeometry relative="1" as="geometry" />
        </mxCell>
        <mxCell id="t4iPXFJpdFiJiGYDeRWr-80" style="edgeStyle=orthogonalEdgeStyle;rounded=0;orthogonalLoop=1;jettySize=auto;html=1;entryX=0.5;entryY=0;entryDx=0;entryDy=0;shadow=0;startArrow=none;startFill=0;endArrow=none;endFill=0;strokeColor=#000000;" edge="1" parent="1" source="t4iPXFJpdFiJiGYDeRWr-81" target="t4iPXFJpdFiJiGYDeRWr-39">
          <mxGeometry relative="1" as="geometry" />
        </mxCell>
        <mxCell id="t4iPXFJpdFiJiGYDeRWr-81" value="Established" style="rhombus;whiteSpace=wrap;html=1;shadow=0;" vertex="1" parent="1">
          <mxGeometry x="3205" y="1870" width="80" height="80" as="geometry" />
        </mxCell>
        <mxCell id="t4iPXFJpdFiJiGYDeRWr-82" value="" style="rounded=0;whiteSpace=wrap;html=1;" vertex="1" parent="1">
          <mxGeometry x="3961.36" y="2080" width="80" height="40" as="geometry" />
        </mxCell>
        <mxCell id="t4iPXFJpdFiJiGYDeRWr-83" value="&lt;font style=&quot;font-size: 16px&quot;&gt;Payment&lt;br&gt;&lt;/font&gt;" style="text;html=1;strokeColor=none;fillColor=none;align=center;verticalAlign=middle;whiteSpace=wrap;rounded=0;" vertex="1" parent="1">
          <mxGeometry x="3981.36" y="2090" width="40" height="20" as="geometry" />
        </mxCell>
        <mxCell id="t4iPXFJpdFiJiGYDeRWr-84" value="&lt;span id=&quot;docs-internal-guid-e0b580ba-7fff-79fb-0ea9-29827e86e199&quot;&gt;&lt;span style=&quot;font-size: 14pt ; font-family: &amp;#34;times new roman&amp;#34; ; background-color: transparent ; vertical-align: baseline&quot;&gt;Order_Id&lt;/span&gt;&lt;/span&gt;" style="ellipse;whiteSpace=wrap;html=1;" vertex="1" parent="1">
          <mxGeometry x="3861.36" y="1998" width="100" height="40" as="geometry" />
        </mxCell>
        <mxCell id="t4iPXFJpdFiJiGYDeRWr-85" value="" style="ellipse;whiteSpace=wrap;html=1;" vertex="1" parent="1">
          <mxGeometry x="4130" y="2040" width="90" height="40" as="geometry" />
        </mxCell>
        <mxCell id="t4iPXFJpdFiJiGYDeRWr-86" value="" style="ellipse;whiteSpace=wrap;html=1;" vertex="1" parent="1">
          <mxGeometry x="3941.36" y="1968" width="90" height="30" as="geometry" />
        </mxCell>
        <mxCell id="t4iPXFJpdFiJiGYDeRWr-87" value="" style="ellipse;whiteSpace=wrap;html=1;" vertex="1" parent="1">
          <mxGeometry x="4030" y="1991" width="150" height="40" as="geometry" />
        </mxCell>
        <mxCell id="t4iPXFJpdFiJiGYDeRWr-88" value="&lt;span id=&quot;docs-internal-guid-1151a406-7fff-d1fc-8f14-1aef7314efdf&quot;&gt;&lt;span style=&quot;font-size: 14pt ; font-family: &amp;#34;times new roman&amp;#34; ; background-color: transparent ; vertical-align: baseline&quot;&gt;Payment_Mode&lt;/span&gt;&lt;/span&gt;" style="text;html=1;strokeColor=none;fillColor=none;align=center;verticalAlign=middle;whiteSpace=wrap;rounded=0;" vertex="1" parent="1">
          <mxGeometry x="4100" y="2001" width="16.36" height="20" as="geometry" />
        </mxCell>
        <mxCell id="t4iPXFJpdFiJiGYDeRWr-89" value="&lt;span id=&quot;docs-internal-guid-35fd8ad8-7fff-ea48-df52-95604f8fccde&quot;&gt;&lt;span style=&quot;font-size: 14pt ; font-family: &amp;#34;times new roman&amp;#34; ; background-color: transparent ; vertical-align: baseline&quot;&gt;Status&lt;/span&gt;&lt;/span&gt;" style="text;html=1;strokeColor=none;fillColor=none;align=center;verticalAlign=middle;whiteSpace=wrap;rounded=0;" vertex="1" parent="1">
          <mxGeometry x="4155" y="2051" width="40" height="20" as="geometry" />
        </mxCell>
        <mxCell id="t4iPXFJpdFiJiGYDeRWr-90" value="" style="endArrow=none;html=1;entryX=0.5;entryY=1;entryDx=0;entryDy=0;exitX=0.655;exitY=0.017;exitDx=0;exitDy=0;exitPerimeter=0;" edge="1" parent="1" source="t4iPXFJpdFiJiGYDeRWr-82" target="t4iPXFJpdFiJiGYDeRWr-87">
          <mxGeometry width="50" height="50" relative="1" as="geometry">
            <mxPoint x="4181.360000000001" y="2120" as="sourcePoint" />
            <mxPoint x="4231.360000000001" y="2070" as="targetPoint" />
          </mxGeometry>
        </mxCell>
        <mxCell id="t4iPXFJpdFiJiGYDeRWr-91" value="" style="endArrow=none;html=1;exitX=0.043;exitY=0.707;exitDx=0;exitDy=0;exitPerimeter=0;entryX=0.75;entryY=0;entryDx=0;entryDy=0;" edge="1" parent="1" source="t4iPXFJpdFiJiGYDeRWr-85" target="t4iPXFJpdFiJiGYDeRWr-82">
          <mxGeometry width="50" height="50" relative="1" as="geometry">
            <mxPoint x="4181.360000000001" y="2120" as="sourcePoint" />
            <mxPoint x="4231.360000000001" y="2070" as="targetPoint" />
          </mxGeometry>
        </mxCell>
        <mxCell id="t4iPXFJpdFiJiGYDeRWr-92" value="" style="endArrow=none;html=1;entryX=1;entryY=1;entryDx=0;entryDy=0;exitX=0.417;exitY=0.017;exitDx=0;exitDy=0;exitPerimeter=0;" edge="1" parent="1" source="t4iPXFJpdFiJiGYDeRWr-82" target="t4iPXFJpdFiJiGYDeRWr-84">
          <mxGeometry width="50" height="50" relative="1" as="geometry">
            <mxPoint x="4181.360000000001" y="2120" as="sourcePoint" />
            <mxPoint x="4231.360000000001" y="2070" as="targetPoint" />
          </mxGeometry>
        </mxCell>
        <mxCell id="t4iPXFJpdFiJiGYDeRWr-93" value="" style="endArrow=none;html=1;entryX=1;entryY=0.5;entryDx=0;entryDy=0;exitX=0;exitY=0.25;exitDx=0;exitDy=0;" edge="1" parent="1" source="t4iPXFJpdFiJiGYDeRWr-82" target="t4iPXFJpdFiJiGYDeRWr-97">
          <mxGeometry width="50" height="50" relative="1" as="geometry">
            <mxPoint x="4181.360000000001" y="2120" as="sourcePoint" />
            <mxPoint x="3941.3600000000047" y="2080" as="targetPoint" />
          </mxGeometry>
        </mxCell>
        <mxCell id="t4iPXFJpdFiJiGYDeRWr-94" style="edgeStyle=orthogonalEdgeStyle;rounded=0;orthogonalLoop=1;jettySize=auto;html=1;exitX=0.25;exitY=0;exitDx=0;exitDy=0;entryX=0;entryY=0.25;entryDx=0;entryDy=0;shadow=0;opacity=30;" edge="1" parent="1">
          <mxGeometry relative="1" as="geometry">
            <mxPoint x="4191.360000000001" y="2060" as="sourcePoint" />
            <mxPoint x="4181.360000000001" y="2065" as="targetPoint" />
          </mxGeometry>
        </mxCell>
        <mxCell id="t4iPXFJpdFiJiGYDeRWr-95" value="&lt;span id=&quot;docs-internal-guid-9580685d-7fff-a355-1d0f-8d7f32a44988&quot;&gt;&lt;span style=&quot;font-size: 14pt ; font-family: &amp;#34;times new roman&amp;#34; ; background-color: transparent ; vertical-align: baseline&quot;&gt;Amount&lt;/span&gt;&lt;/span&gt;" style="text;html=1;strokeColor=none;fillColor=none;align=center;verticalAlign=middle;whiteSpace=wrap;rounded=0;" vertex="1" parent="1">
          <mxGeometry x="3969.36" y="1970" width="40" height="20" as="geometry" />
        </mxCell>
        <mxCell id="t4iPXFJpdFiJiGYDeRWr-96" value="" style="endArrow=none;html=1;startSize=5;" edge="1" parent="1">
          <mxGeometry width="50" height="50" relative="1" as="geometry">
            <mxPoint x="4001.088" y="2078" as="sourcePoint" />
            <mxPoint x="4000" y="1998" as="targetPoint" />
          </mxGeometry>
        </mxCell>
        <mxCell id="t4iPXFJpdFiJiGYDeRWr-97" value="&lt;span id=&quot;docs-internal-guid-189d941d-7fff-d29b-d00c-8ed80bf78aed&quot;&gt;&lt;span style=&quot;font-size: 14pt ; font-family: &amp;#34;times new roman&amp;#34; ; background-color: transparent ; vertical-align: baseline&quot;&gt;Payment_Id&lt;/span&gt;&lt;/span&gt;" style="ellipse;whiteSpace=wrap;html=1;" vertex="1" parent="1">
          <mxGeometry x="3840" y="2048" width="110" height="40" as="geometry" />
        </mxCell>
        <mxCell id="t4iPXFJpdFiJiGYDeRWr-98" style="edgeStyle=orthogonalEdgeStyle;rounded=0;orthogonalLoop=1;jettySize=auto;html=1;entryX=0;entryY=0.5;entryDx=0;entryDy=0;shadow=0;startArrow=none;startFill=0;startSize=5;endArrow=none;endFill=0;strokeColor=#000000;" edge="1" parent="1" source="t4iPXFJpdFiJiGYDeRWr-99" target="t4iPXFJpdFiJiGYDeRWr-82">
          <mxGeometry relative="1" as="geometry" />
        </mxCell>
        <mxCell id="t4iPXFJpdFiJiGYDeRWr-99" value="Had" style="rhombus;whiteSpace=wrap;html=1;shadow=0;" vertex="1" parent="1">
          <mxGeometry x="3580" y="2048" width="80" height="80" as="geometry" />
        </mxCell>
        <mxCell id="t4iPXFJpdFiJiGYDeRWr-100" value="" style="rounded=0;whiteSpace=wrap;html=1;" vertex="1" parent="1">
          <mxGeometry x="3961.36" y="2275" width="80" height="40" as="geometry" />
        </mxCell>
        <mxCell id="t4iPXFJpdFiJiGYDeRWr-101" value="&lt;font style=&quot;font-size: 16px&quot;&gt;Track&lt;br&gt;&lt;/font&gt;" style="text;html=1;strokeColor=none;fillColor=none;align=center;verticalAlign=middle;whiteSpace=wrap;rounded=0;" vertex="1" parent="1">
          <mxGeometry x="3981.36" y="2285" width="40" height="20" as="geometry" />
        </mxCell>
        <mxCell id="t4iPXFJpdFiJiGYDeRWr-102" value="&lt;span id=&quot;docs-internal-guid-e0b580ba-7fff-79fb-0ea9-29827e86e199&quot;&gt;&lt;span style=&quot;font-size: 14pt ; font-family: &amp;#34;times new roman&amp;#34; ; background-color: transparent ; vertical-align: baseline&quot;&gt;Order_Id&lt;/span&gt;&lt;/span&gt;" style="ellipse;whiteSpace=wrap;html=1;" vertex="1" parent="1">
          <mxGeometry x="3861.36" y="2193" width="100" height="40" as="geometry" />
        </mxCell>
        <mxCell id="t4iPXFJpdFiJiGYDeRWr-103" value="" style="ellipse;whiteSpace=wrap;html=1;" vertex="1" parent="1">
          <mxGeometry x="4130" y="2235" width="90" height="40" as="geometry" />
        </mxCell>
        <mxCell id="t4iPXFJpdFiJiGYDeRWr-104" value="" style="ellipse;whiteSpace=wrap;html=1;" vertex="1" parent="1">
          <mxGeometry x="3941.36" y="2163" width="90" height="30" as="geometry" />
        </mxCell>
        <mxCell id="t4iPXFJpdFiJiGYDeRWr-105" value="" style="ellipse;whiteSpace=wrap;html=1;" vertex="1" parent="1">
          <mxGeometry x="4030" y="2186" width="150" height="40" as="geometry" />
        </mxCell>
        <mxCell id="t4iPXFJpdFiJiGYDeRWr-106" value="&lt;span id=&quot;docs-internal-guid-1151a406-7fff-d1fc-8f14-1aef7314efdf&quot;&gt;&lt;span style=&quot;font-size: 14pt ; font-family: &amp;#34;times new roman&amp;#34; ; background-color: transparent ; vertical-align: baseline&quot;&gt;Date&lt;br&gt;&lt;/span&gt;&lt;/span&gt;" style="text;html=1;strokeColor=none;fillColor=none;align=center;verticalAlign=middle;whiteSpace=wrap;rounded=0;" vertex="1" parent="1">
          <mxGeometry x="4100" y="2196" width="16.36" height="20" as="geometry" />
        </mxCell>
        <mxCell id="t4iPXFJpdFiJiGYDeRWr-107" value="&lt;span id=&quot;docs-internal-guid-35fd8ad8-7fff-ea48-df52-95604f8fccde&quot;&gt;&lt;span style=&quot;font-size: 14pt ; font-family: &amp;#34;times new roman&amp;#34; ; background-color: transparent ; vertical-align: baseline&quot;&gt;Status&lt;/span&gt;&lt;/span&gt;" style="text;html=1;strokeColor=none;fillColor=none;align=center;verticalAlign=middle;whiteSpace=wrap;rounded=0;" vertex="1" parent="1">
          <mxGeometry x="4155" y="2246" width="40" height="20" as="geometry" />
        </mxCell>
        <mxCell id="t4iPXFJpdFiJiGYDeRWr-108" value="" style="endArrow=none;html=1;entryX=0.5;entryY=1;entryDx=0;entryDy=0;exitX=0.655;exitY=0.017;exitDx=0;exitDy=0;exitPerimeter=0;" edge="1" parent="1" source="t4iPXFJpdFiJiGYDeRWr-100" target="t4iPXFJpdFiJiGYDeRWr-105">
          <mxGeometry width="50" height="50" relative="1" as="geometry">
            <mxPoint x="4181.360000000001" y="2315" as="sourcePoint" />
            <mxPoint x="4231.360000000001" y="2265" as="targetPoint" />
          </mxGeometry>
        </mxCell>
        <mxCell id="t4iPXFJpdFiJiGYDeRWr-109" value="" style="endArrow=none;html=1;exitX=0.043;exitY=0.707;exitDx=0;exitDy=0;exitPerimeter=0;entryX=0.75;entryY=0;entryDx=0;entryDy=0;" edge="1" parent="1" source="t4iPXFJpdFiJiGYDeRWr-103" target="t4iPXFJpdFiJiGYDeRWr-100">
          <mxGeometry width="50" height="50" relative="1" as="geometry">
            <mxPoint x="4181.360000000001" y="2315" as="sourcePoint" />
            <mxPoint x="4231.360000000001" y="2265" as="targetPoint" />
          </mxGeometry>
        </mxCell>
        <mxCell id="t4iPXFJpdFiJiGYDeRWr-110" value="" style="endArrow=none;html=1;entryX=1;entryY=1;entryDx=0;entryDy=0;exitX=0.417;exitY=0.017;exitDx=0;exitDy=0;exitPerimeter=0;" edge="1" parent="1" source="t4iPXFJpdFiJiGYDeRWr-100" target="t4iPXFJpdFiJiGYDeRWr-102">
          <mxGeometry width="50" height="50" relative="1" as="geometry">
            <mxPoint x="4181.360000000001" y="2315" as="sourcePoint" />
            <mxPoint x="4231.360000000001" y="2265" as="targetPoint" />
          </mxGeometry>
        </mxCell>
        <mxCell id="t4iPXFJpdFiJiGYDeRWr-111" value="" style="endArrow=none;html=1;entryX=1;entryY=0.5;entryDx=0;entryDy=0;exitX=0;exitY=0.25;exitDx=0;exitDy=0;" edge="1" parent="1" source="t4iPXFJpdFiJiGYDeRWr-100" target="t4iPXFJpdFiJiGYDeRWr-115">
          <mxGeometry width="50" height="50" relative="1" as="geometry">
            <mxPoint x="4181.360000000001" y="2315" as="sourcePoint" />
            <mxPoint x="3941.3600000000047" y="2275" as="targetPoint" />
          </mxGeometry>
        </mxCell>
        <mxCell id="t4iPXFJpdFiJiGYDeRWr-112" style="edgeStyle=orthogonalEdgeStyle;rounded=0;orthogonalLoop=1;jettySize=auto;html=1;exitX=0.25;exitY=0;exitDx=0;exitDy=0;entryX=0;entryY=0.25;entryDx=0;entryDy=0;shadow=0;opacity=30;" edge="1" parent="1">
          <mxGeometry relative="1" as="geometry">
            <mxPoint x="4191.360000000001" y="2255" as="sourcePoint" />
            <mxPoint x="4181.360000000001" y="2260" as="targetPoint" />
          </mxGeometry>
        </mxCell>
        <mxCell id="t4iPXFJpdFiJiGYDeRWr-113" value="&lt;span id=&quot;docs-internal-guid-9580685d-7fff-a355-1d0f-8d7f32a44988&quot;&gt;&lt;span style=&quot;font-size: 14pt ; font-family: &amp;#34;times new roman&amp;#34; ; background-color: transparent ; vertical-align: baseline&quot;&gt;Reason&lt;br&gt;&lt;/span&gt;&lt;/span&gt;" style="text;html=1;strokeColor=none;fillColor=none;align=center;verticalAlign=middle;whiteSpace=wrap;rounded=0;" vertex="1" parent="1">
          <mxGeometry x="3969.36" y="2165" width="40" height="20" as="geometry" />
        </mxCell>
        <mxCell id="t4iPXFJpdFiJiGYDeRWr-114" value="" style="endArrow=none;html=1;startSize=5;" edge="1" parent="1">
          <mxGeometry width="50" height="50" relative="1" as="geometry">
            <mxPoint x="4001.088" y="2273" as="sourcePoint" />
            <mxPoint x="4000.0000000000005" y="2193" as="targetPoint" />
          </mxGeometry>
        </mxCell>
        <mxCell id="t4iPXFJpdFiJiGYDeRWr-115" value="&lt;span id=&quot;docs-internal-guid-189d941d-7fff-d29b-d00c-8ed80bf78aed&quot;&gt;&lt;span style=&quot;font-size: 14pt ; font-family: &amp;#34;times new roman&amp;#34; ; background-color: transparent ; vertical-align: baseline&quot;&gt;Track_Id&lt;/span&gt;&lt;/span&gt;" style="ellipse;whiteSpace=wrap;html=1;" vertex="1" parent="1">
          <mxGeometry x="3840" y="2243" width="110" height="40" as="geometry" />
        </mxCell>
        <mxCell id="t4iPXFJpdFiJiGYDeRWr-116" style="edgeStyle=orthogonalEdgeStyle;rounded=0;orthogonalLoop=1;jettySize=auto;html=1;entryX=0;entryY=0.5;entryDx=0;entryDy=0;shadow=0;startArrow=none;startFill=0;startSize=5;endArrow=none;endFill=0;strokeColor=#000000;" edge="1" parent="1" source="t4iPXFJpdFiJiGYDeRWr-117" target="t4iPXFJpdFiJiGYDeRWr-100">
          <mxGeometry relative="1" as="geometry" />
        </mxCell>
        <mxCell id="t4iPXFJpdFiJiGYDeRWr-117" value="is" style="rhombus;whiteSpace=wrap;html=1;shadow=0;" vertex="1" parent="1">
          <mxGeometry x="3580" y="2242" width="80" height="80" as="geometry" />
        </mxCell>
        <mxCell id="t4iPXFJpdFiJiGYDeRWr-118" value="" style="rounded=0;whiteSpace=wrap;html=1;" vertex="1" parent="1">
          <mxGeometry x="3901.36" y="1730" width="90" height="40" as="geometry" />
        </mxCell>
        <mxCell id="t4iPXFJpdFiJiGYDeRWr-119" value="&lt;font style=&quot;font-size: 16px&quot;&gt;Coupon&lt;br&gt;&lt;/font&gt;" style="text;html=1;strokeColor=none;fillColor=none;align=center;verticalAlign=middle;whiteSpace=wrap;rounded=0;" vertex="1" parent="1">
          <mxGeometry x="3926.36" y="1740" width="40" height="20" as="geometry" />
        </mxCell>
        <mxCell id="t4iPXFJpdFiJiGYDeRWr-120" value="&lt;span id=&quot;docs-internal-guid-9eb8e1c8-7fff-ee49-3fa8-3c1113380a18&quot;&gt;&lt;span style=&quot;font-size: 14pt ; font-family: &amp;#34;times new roman&amp;#34; ; background-color: transparent ; vertical-align: baseline&quot;&gt;Coupon_Id&lt;/span&gt;&lt;/span&gt;" style="ellipse;whiteSpace=wrap;html=1;" vertex="1" parent="1">
          <mxGeometry x="3731.36" y="1685" width="100" height="40" as="geometry" />
        </mxCell>
        <mxCell id="t4iPXFJpdFiJiGYDeRWr-121" value="&lt;span style=&quot;font-family: &amp;#34;times new roman&amp;#34; ; font-size: 18.6667px&quot;&gt;Coupon_Code&lt;/span&gt;" style="ellipse;whiteSpace=wrap;html=1;" vertex="1" parent="1">
          <mxGeometry x="3831.36" y="1670" width="118.64" height="40" as="geometry" />
        </mxCell>
        <mxCell id="t4iPXFJpdFiJiGYDeRWr-122" value="" style="ellipse;whiteSpace=wrap;html=1;" vertex="1" parent="1">
          <mxGeometry x="3901.36" y="1630" width="140" height="40" as="geometry" />
        </mxCell>
        <mxCell id="t4iPXFJpdFiJiGYDeRWr-123" value="&lt;span id=&quot;docs-internal-guid-d01b7721-7fff-c2e7-b974-40841ed25cb6&quot;&gt;&lt;span style=&quot;font-size: 14pt ; font-family: &amp;#34;times new roman&amp;#34; ; background-color: transparent ; vertical-align: baseline&quot;&gt;Expiry_Date&lt;/span&gt;&lt;/span&gt;" style="text;html=1;strokeColor=none;fillColor=none;align=center;verticalAlign=middle;whiteSpace=wrap;rounded=0;" vertex="1" parent="1">
          <mxGeometry x="3931.36" y="1640" width="95" height="20" as="geometry" />
        </mxCell>
        <mxCell id="t4iPXFJpdFiJiGYDeRWr-124" value="" style="endArrow=none;html=1;entryX=0.5;entryY=1;entryDx=0;entryDy=0;exitX=0.655;exitY=0.017;exitDx=0;exitDy=0;exitPerimeter=0;" edge="1" parent="1" source="t4iPXFJpdFiJiGYDeRWr-118" target="t4iPXFJpdFiJiGYDeRWr-122">
          <mxGeometry width="50" height="50" relative="1" as="geometry">
            <mxPoint x="4111.360000000001" y="1770" as="sourcePoint" />
            <mxPoint x="4161.360000000001" y="1720" as="targetPoint" />
          </mxGeometry>
        </mxCell>
        <mxCell id="t4iPXFJpdFiJiGYDeRWr-125" value="" style="endArrow=none;html=1;entryX=0.75;entryY=0;entryDx=0;entryDy=0;" edge="1" parent="1" source="t4iPXFJpdFiJiGYDeRWr-128" target="t4iPXFJpdFiJiGYDeRWr-118">
          <mxGeometry width="50" height="50" relative="1" as="geometry">
            <mxPoint x="4017.81" y="1708.28" as="sourcePoint" />
            <mxPoint x="4161.360000000001" y="1720" as="targetPoint" />
          </mxGeometry>
        </mxCell>
        <mxCell id="t4iPXFJpdFiJiGYDeRWr-126" value="" style="endArrow=none;html=1;entryX=1;entryY=1;entryDx=0;entryDy=0;exitX=0.417;exitY=0.017;exitDx=0;exitDy=0;exitPerimeter=0;" edge="1" parent="1" source="t4iPXFJpdFiJiGYDeRWr-118" target="t4iPXFJpdFiJiGYDeRWr-121">
          <mxGeometry width="50" height="50" relative="1" as="geometry">
            <mxPoint x="4111.360000000001" y="1770" as="sourcePoint" />
            <mxPoint x="4161.360000000001" y="1720" as="targetPoint" />
          </mxGeometry>
        </mxCell>
        <mxCell id="t4iPXFJpdFiJiGYDeRWr-127" value="" style="endArrow=none;html=1;entryX=1;entryY=0.5;entryDx=0;entryDy=0;exitX=0;exitY=0.25;exitDx=0;exitDy=0;" edge="1" parent="1" source="t4iPXFJpdFiJiGYDeRWr-118">
          <mxGeometry width="50" height="50" relative="1" as="geometry">
            <mxPoint x="4111.360000000001" y="1770" as="sourcePoint" />
            <mxPoint x="3831.3600000000206" y="1710" as="targetPoint" />
          </mxGeometry>
        </mxCell>
        <mxCell id="t4iPXFJpdFiJiGYDeRWr-128" value="&lt;span id=&quot;docs-internal-guid-115ef4e5-7fff-dad2-493a-a163f233aae6&quot;&gt;&lt;span style=&quot;font-size: 14pt ; font-family: &amp;#34;times new roman&amp;#34; ; background-color: transparent ; vertical-align: baseline&quot;&gt;Discount&lt;/span&gt;&lt;/span&gt;" style="ellipse;whiteSpace=wrap;html=1;" vertex="1" parent="1">
          <mxGeometry x="4009.36" y="1665" width="140" height="40" as="geometry" />
        </mxCell>
        <mxCell id="t4iPXFJpdFiJiGYDeRWr-129" style="edgeStyle=orthogonalEdgeStyle;rounded=0;orthogonalLoop=1;jettySize=auto;html=1;shadow=0;startArrow=none;startFill=0;startSize=5;endArrow=none;endFill=0;strokeColor=#000000;" edge="1" parent="1" source="t4iPXFJpdFiJiGYDeRWr-130">
          <mxGeometry relative="1" as="geometry">
            <mxPoint x="3900" y="1750" as="targetPoint" />
          </mxGeometry>
        </mxCell>
        <mxCell id="t4iPXFJpdFiJiGYDeRWr-130" value="Apply" style="rhombus;whiteSpace=wrap;html=1;shadow=0;" vertex="1" parent="1">
          <mxGeometry x="3470" y="1710" width="80" height="80" as="geometry" />
        </mxCell>
        <mxCell id="t4iPXFJpdFiJiGYDeRWr-131" style="edgeStyle=orthogonalEdgeStyle;rounded=0;orthogonalLoop=1;jettySize=auto;html=1;entryX=0.5;entryY=1;entryDx=0;entryDy=0;shadow=0;startArrow=none;startFill=0;startSize=5;endArrow=none;endFill=0;strokeColor=#000000;" edge="1" parent="1" source="t4iPXFJpdFiJiGYDeRWr-133" target="t4iPXFJpdFiJiGYDeRWr-135">
          <mxGeometry relative="1" as="geometry" />
        </mxCell>
        <mxCell id="t4iPXFJpdFiJiGYDeRWr-132" style="edgeStyle=orthogonalEdgeStyle;rounded=0;orthogonalLoop=1;jettySize=auto;html=1;entryX=0;entryY=0.5;entryDx=0;entryDy=0;shadow=0;startArrow=none;startFill=0;startSize=5;endArrow=none;endFill=0;strokeColor=#000000;" edge="1" parent="1" source="t4iPXFJpdFiJiGYDeRWr-133" target="t4iPXFJpdFiJiGYDeRWr-137">
          <mxGeometry relative="1" as="geometry" />
        </mxCell>
        <mxCell id="t4iPXFJpdFiJiGYDeRWr-133" value="&lt;font style=&quot;font-size: 16px&quot;&gt;User&lt;/font&gt;" style="rounded=0;whiteSpace=wrap;html=1;" vertex="1" parent="1">
          <mxGeometry x="2380" y="2051" width="80" height="40" as="geometry" />
        </mxCell>
        <mxCell id="t4iPXFJpdFiJiGYDeRWr-134" style="edgeStyle=orthogonalEdgeStyle;rounded=0;orthogonalLoop=1;jettySize=auto;html=1;entryX=0.5;entryY=1;entryDx=0;entryDy=0;shadow=0;startArrow=none;startFill=0;startSize=5;endArrow=none;endFill=0;strokeColor=#000000;" edge="1" parent="1" source="t4iPXFJpdFiJiGYDeRWr-135" target="t4iPXFJpdFiJiGYDeRWr-1">
          <mxGeometry relative="1" as="geometry" />
        </mxCell>
        <mxCell id="t4iPXFJpdFiJiGYDeRWr-135" value="Buy" style="rhombus;whiteSpace=wrap;html=1;shadow=0;" vertex="1" parent="1">
          <mxGeometry x="2380" y="1850" width="80" height="80" as="geometry" />
        </mxCell>
        <mxCell id="t4iPXFJpdFiJiGYDeRWr-136" style="edgeStyle=orthogonalEdgeStyle;rounded=0;orthogonalLoop=1;jettySize=auto;html=1;entryX=0;entryY=0.75;entryDx=0;entryDy=0;shadow=0;startArrow=none;startFill=0;startSize=5;endArrow=none;endFill=0;strokeColor=#000000;" edge="1" parent="1" source="t4iPXFJpdFiJiGYDeRWr-137" target="t4iPXFJpdFiJiGYDeRWr-39">
          <mxGeometry relative="1" as="geometry" />
        </mxCell>
        <mxCell id="t4iPXFJpdFiJiGYDeRWr-137" value="Has" style="rhombus;whiteSpace=wrap;html=1;shadow=0;" vertex="1" parent="1">
          <mxGeometry x="2760" y="2031" width="80" height="80" as="geometry" />
        </mxCell>
        <mxCell id="t4iPXFJpdFiJiGYDeRWr-138" style="edgeStyle=orthogonalEdgeStyle;rounded=0;orthogonalLoop=1;jettySize=auto;html=1;entryX=0.5;entryY=1;entryDx=0;entryDy=0;endArrow=none;endFill=0;" edge="1" parent="1" source="t4iPXFJpdFiJiGYDeRWr-338" target="t4iPXFJpdFiJiGYDeRWr-133">
          <mxGeometry relative="1" as="geometry">
            <mxPoint x="2420" y="2430" as="sourcePoint" />
          </mxGeometry>
        </mxCell>
        <mxCell id="t4iPXFJpdFiJiGYDeRWr-139" value="&lt;font style=&quot;font-size: 16px&quot;&gt;Customer_Care&lt;/font&gt;" style="rounded=0;whiteSpace=wrap;html=1;" vertex="1" parent="1">
          <mxGeometry x="2360" y="2700" width="120" height="40" as="geometry" />
        </mxCell>
        <mxCell id="t4iPXFJpdFiJiGYDeRWr-140" style="edgeStyle=orthogonalEdgeStyle;rounded=0;orthogonalLoop=1;jettySize=auto;html=1;entryX=0.5;entryY=0;entryDx=0;entryDy=0;shadow=0;startArrow=none;startFill=0;startSize=5;endArrow=none;endFill=0;strokeColor=#000000;" edge="1" parent="1" source="t4iPXFJpdFiJiGYDeRWr-338" target="t4iPXFJpdFiJiGYDeRWr-139">
          <mxGeometry relative="1" as="geometry" />
        </mxCell>
        <mxCell id="t4iPXFJpdFiJiGYDeRWr-141" style="edgeStyle=orthogonalEdgeStyle;rounded=0;orthogonalLoop=1;jettySize=auto;html=1;entryX=0.5;entryY=1;entryDx=0;entryDy=0;shadow=0;startArrow=none;startFill=0;startSize=5;endArrow=none;endFill=0;strokeColor=#000000;" edge="1" parent="1" source="t4iPXFJpdFiJiGYDeRWr-338">
          <mxGeometry relative="1" as="geometry">
            <mxPoint x="2420.0000000000005" y="2430" as="targetPoint" />
          </mxGeometry>
        </mxCell>
        <mxCell id="t4iPXFJpdFiJiGYDeRWr-142" style="edgeStyle=orthogonalEdgeStyle;rounded=0;orthogonalLoop=1;jettySize=auto;html=1;shadow=0;startArrow=none;startFill=0;startSize=5;endArrow=none;endFill=0;strokeColor=#000000;" edge="1" parent="1" source="t4iPXFJpdFiJiGYDeRWr-143" target="t4iPXFJpdFiJiGYDeRWr-145">
          <mxGeometry relative="1" as="geometry" />
        </mxCell>
        <mxCell id="t4iPXFJpdFiJiGYDeRWr-143" value="&lt;font style=&quot;font-size: 16px&quot;&gt;Notification&lt;/font&gt;" style="rounded=0;whiteSpace=wrap;html=1;" vertex="1" parent="1">
          <mxGeometry x="1910" y="2061" width="110" height="40" as="geometry" />
        </mxCell>
        <mxCell id="t4iPXFJpdFiJiGYDeRWr-144" style="edgeStyle=orthogonalEdgeStyle;rounded=0;orthogonalLoop=1;jettySize=auto;html=1;shadow=0;startArrow=none;startFill=0;startSize=5;endArrow=none;endFill=0;strokeColor=#000000;" edge="1" parent="1" source="t4iPXFJpdFiJiGYDeRWr-145" target="t4iPXFJpdFiJiGYDeRWr-133">
          <mxGeometry relative="1" as="geometry">
            <mxPoint x="2220" y="2071" as="sourcePoint" />
          </mxGeometry>
        </mxCell>
        <mxCell id="t4iPXFJpdFiJiGYDeRWr-145" value="Receive" style="rhombus;whiteSpace=wrap;html=1;shadow=0;" vertex="1" parent="1">
          <mxGeometry x="2130" y="2038" width="80" height="80" as="geometry" />
        </mxCell>
        <mxCell id="t4iPXFJpdFiJiGYDeRWr-146" value="Supplier" style="rounded=0;whiteSpace=wrap;html=1;" vertex="1" parent="1">
          <mxGeometry x="3127.5" y="1490" width="80" height="40" as="geometry" />
        </mxCell>
        <mxCell id="t4iPXFJpdFiJiGYDeRWr-147" style="edgeStyle=orthogonalEdgeStyle;rounded=0;orthogonalLoop=1;jettySize=auto;html=1;entryX=0;entryY=0.5;entryDx=0;entryDy=0;shadow=0;startArrow=none;startFill=0;startSize=5;endArrow=none;endFill=0;strokeColor=#000000;" edge="1" parent="1" source="t4iPXFJpdFiJiGYDeRWr-150" target="t4iPXFJpdFiJiGYDeRWr-146">
          <mxGeometry relative="1" as="geometry" />
        </mxCell>
        <mxCell id="t4iPXFJpdFiJiGYDeRWr-148" value="" style="edgeStyle=orthogonalEdgeStyle;rounded=0;orthogonalLoop=1;jettySize=auto;html=1;shadow=0;startArrow=none;startFill=0;startSize=5;endArrow=none;endFill=0;strokeColor=#000000;" edge="1" parent="1" source="t4iPXFJpdFiJiGYDeRWr-150" target="t4iPXFJpdFiJiGYDeRWr-61">
          <mxGeometry relative="1" as="geometry" />
        </mxCell>
        <mxCell id="t4iPXFJpdFiJiGYDeRWr-149" style="edgeStyle=orthogonalEdgeStyle;rounded=0;orthogonalLoop=1;jettySize=auto;html=1;entryX=0.75;entryY=1;entryDx=0;entryDy=0;shadow=0;startArrow=none;startFill=0;startSize=5;endArrow=none;endFill=0;strokeColor=#000000;" edge="1" parent="1" source="t4iPXFJpdFiJiGYDeRWr-150" target="t4iPXFJpdFiJiGYDeRWr-1">
          <mxGeometry relative="1" as="geometry">
            <Array as="points">
              <mxPoint x="2680" y="1511" />
              <mxPoint x="2680" y="1790" />
              <mxPoint x="2447" y="1790" />
            </Array>
          </mxGeometry>
        </mxCell>
        <mxCell id="t4iPXFJpdFiJiGYDeRWr-150" value="Has" style="rhombus;whiteSpace=wrap;html=1;shadow=0;" vertex="1" parent="1">
          <mxGeometry x="2810" y="1471" width="80" height="80" as="geometry" />
        </mxCell>
        <mxCell id="t4iPXFJpdFiJiGYDeRWr-151" style="edgeStyle=orthogonalEdgeStyle;rounded=0;orthogonalLoop=1;jettySize=auto;html=1;entryX=0;entryY=0.75;entryDx=0;entryDy=0;shadow=0;startArrow=none;startFill=0;startSize=5;endArrow=none;endFill=0;strokeColor=#000000;" edge="1" parent="1" target="t4iPXFJpdFiJiGYDeRWr-1">
          <mxGeometry relative="1" as="geometry">
            <Array as="points">
              <mxPoint x="2240" y="1418" />
              <mxPoint x="2240" y="1760" />
            </Array>
            <mxPoint x="2140" y="1418" as="sourcePoint" />
          </mxGeometry>
        </mxCell>
        <mxCell id="t4iPXFJpdFiJiGYDeRWr-152" style="edgeStyle=orthogonalEdgeStyle;rounded=0;orthogonalLoop=1;jettySize=auto;html=1;shadow=0;startArrow=none;startFill=0;startSize=5;endArrow=none;endFill=0;strokeColor=#000000;" edge="1" parent="1">
          <mxGeometry relative="1" as="geometry">
            <mxPoint x="2390" y="1770" as="targetPoint" />
            <Array as="points">
              <mxPoint x="2230" y="1578" />
              <mxPoint x="2230" y="1770" />
            </Array>
            <mxPoint x="2130" y="1578" as="sourcePoint" />
          </mxGeometry>
        </mxCell>
        <mxCell id="t4iPXFJpdFiJiGYDeRWr-153" style="edgeStyle=orthogonalEdgeStyle;rounded=0;orthogonalLoop=1;jettySize=auto;html=1;entryX=0.25;entryY=1;entryDx=0;entryDy=0;shadow=0;startArrow=none;startFill=0;startSize=5;endArrow=none;endFill=0;strokeColor=#000000;" edge="1" parent="1" target="t4iPXFJpdFiJiGYDeRWr-1">
          <mxGeometry relative="1" as="geometry">
            <Array as="points">
              <mxPoint x="2210" y="1708" />
              <mxPoint x="2210" y="1790" />
              <mxPoint x="2407" y="1790" />
            </Array>
            <mxPoint x="2140" y="1708" as="sourcePoint" />
          </mxGeometry>
        </mxCell>
        <mxCell id="t4iPXFJpdFiJiGYDeRWr-154" style="edgeStyle=orthogonalEdgeStyle;rounded=0;orthogonalLoop=1;jettySize=auto;html=1;exitX=1;exitY=0.5;exitDx=0;exitDy=0;entryX=0.25;entryY=1;entryDx=0;entryDy=0;shadow=0;startArrow=none;startFill=0;startSize=5;endArrow=none;endFill=0;strokeColor=#000000;" edge="1" parent="1" target="t4iPXFJpdFiJiGYDeRWr-1">
          <mxGeometry relative="1" as="geometry">
            <mxPoint x="2140" y="1828" as="sourcePoint" />
          </mxGeometry>
        </mxCell>
        <mxCell id="t4iPXFJpdFiJiGYDeRWr-155" style="edgeStyle=orthogonalEdgeStyle;rounded=0;orthogonalLoop=1;jettySize=auto;html=1;entryX=1;entryY=0.5;entryDx=0;entryDy=0;shadow=0;startArrow=none;startFill=0;startSize=5;endArrow=none;endFill=0;strokeColor=#000000;" edge="1" parent="1" source="t4iPXFJpdFiJiGYDeRWr-157" target="t4iPXFJpdFiJiGYDeRWr-159">
          <mxGeometry relative="1" as="geometry">
            <Array as="points">
              <mxPoint x="2780" y="2520" />
              <mxPoint x="2780" y="2390" />
            </Array>
          </mxGeometry>
        </mxCell>
        <mxCell id="t4iPXFJpdFiJiGYDeRWr-156" style="edgeStyle=orthogonalEdgeStyle;rounded=0;orthogonalLoop=1;jettySize=auto;html=1;entryX=0;entryY=0.5;entryDx=0;entryDy=0;shadow=0;startArrow=none;startFill=0;startSize=5;endArrow=none;endFill=0;strokeColor=#000000;" edge="1" parent="1" source="t4iPXFJpdFiJiGYDeRWr-157" target="t4iPXFJpdFiJiGYDeRWr-167">
          <mxGeometry relative="1" as="geometry" />
        </mxCell>
        <mxCell id="t4iPXFJpdFiJiGYDeRWr-157" value="&lt;font style=&quot;font-size: 16px&quot;&gt;Admin&lt;/font&gt;" style="rounded=0;whiteSpace=wrap;html=1;" vertex="1" parent="1">
          <mxGeometry x="2940" y="2500" width="80" height="40" as="geometry" />
        </mxCell>
        <mxCell id="t4iPXFJpdFiJiGYDeRWr-158" style="edgeStyle=orthogonalEdgeStyle;rounded=0;orthogonalLoop=1;jettySize=auto;html=1;entryX=1;entryY=0.75;entryDx=0;entryDy=0;shadow=0;startArrow=none;startFill=0;startSize=5;endArrow=none;endFill=0;strokeColor=#000000;" edge="1" parent="1" source="t4iPXFJpdFiJiGYDeRWr-159" target="t4iPXFJpdFiJiGYDeRWr-1">
          <mxGeometry relative="1" as="geometry" />
        </mxCell>
        <mxCell id="t4iPXFJpdFiJiGYDeRWr-159" value="Manage" style="rhombus;whiteSpace=wrap;html=1;shadow=0;" vertex="1" parent="1">
          <mxGeometry x="2610" y="2350" width="80" height="80" as="geometry" />
        </mxCell>
        <mxCell id="t4iPXFJpdFiJiGYDeRWr-160" style="edgeStyle=orthogonalEdgeStyle;rounded=0;orthogonalLoop=1;jettySize=auto;html=1;entryX=0.25;entryY=0;entryDx=0;entryDy=0;shadow=0;startArrow=none;startFill=0;startSize=5;endArrow=none;endFill=0;strokeColor=#000000;" edge="1" parent="1" source="t4iPXFJpdFiJiGYDeRWr-162" target="t4iPXFJpdFiJiGYDeRWr-157">
          <mxGeometry relative="1" as="geometry" />
        </mxCell>
        <mxCell id="t4iPXFJpdFiJiGYDeRWr-161" style="edgeStyle=orthogonalEdgeStyle;rounded=0;orthogonalLoop=1;jettySize=auto;html=1;entryX=1;entryY=1;entryDx=0;entryDy=0;shadow=0;startArrow=none;startFill=0;startSize=5;endArrow=none;endFill=0;strokeColor=#000000;" edge="1" parent="1" source="t4iPXFJpdFiJiGYDeRWr-162" target="t4iPXFJpdFiJiGYDeRWr-133">
          <mxGeometry relative="1" as="geometry">
            <Array as="points">
              <mxPoint x="2840" y="2200" />
              <mxPoint x="2460" y="2200" />
            </Array>
          </mxGeometry>
        </mxCell>
        <mxCell id="t4iPXFJpdFiJiGYDeRWr-162" value="Manage" style="rhombus;whiteSpace=wrap;html=1;shadow=0;" vertex="1" parent="1">
          <mxGeometry x="2800" y="2350" width="80" height="80" as="geometry" />
        </mxCell>
        <mxCell id="t4iPXFJpdFiJiGYDeRWr-163" style="edgeStyle=orthogonalEdgeStyle;rounded=0;orthogonalLoop=1;jettySize=auto;html=1;shadow=0;startArrow=none;startFill=0;startSize=5;endArrow=none;endFill=0;strokeColor=#000000;entryX=0.5;entryY=1;entryDx=0;entryDy=0;" edge="1" parent="1" source="t4iPXFJpdFiJiGYDeRWr-165" target="t4iPXFJpdFiJiGYDeRWr-157">
          <mxGeometry relative="1" as="geometry">
            <mxPoint x="2990" y="2550" as="targetPoint" />
            <Array as="points">
              <mxPoint x="3000" y="2540" />
            </Array>
          </mxGeometry>
        </mxCell>
        <mxCell id="t4iPXFJpdFiJiGYDeRWr-164" style="edgeStyle=orthogonalEdgeStyle;rounded=0;orthogonalLoop=1;jettySize=auto;html=1;shadow=0;startArrow=none;startFill=0;startSize=5;endArrow=none;endFill=0;strokeColor=#000000;entryX=0.5;entryY=1;entryDx=0;entryDy=0;" edge="1" parent="1" source="t4iPXFJpdFiJiGYDeRWr-165" target="t4iPXFJpdFiJiGYDeRWr-143">
          <mxGeometry relative="1" as="geometry">
            <mxPoint x="1970" y="2110" as="targetPoint" />
          </mxGeometry>
        </mxCell>
        <mxCell id="t4iPXFJpdFiJiGYDeRWr-165" value="Send" style="rhombus;whiteSpace=wrap;html=1;shadow=0;" vertex="1" parent="1">
          <mxGeometry x="2960" y="2710" width="80" height="80" as="geometry" />
        </mxCell>
        <mxCell id="t4iPXFJpdFiJiGYDeRWr-166" style="edgeStyle=orthogonalEdgeStyle;rounded=0;orthogonalLoop=1;jettySize=auto;html=1;shadow=0;startArrow=none;startFill=0;startSize=5;endArrow=none;endFill=0;strokeColor=#000000;entryX=1;entryY=0.5;entryDx=0;entryDy=0;" edge="1" parent="1" source="t4iPXFJpdFiJiGYDeRWr-167" target="t4iPXFJpdFiJiGYDeRWr-118">
          <mxGeometry relative="1" as="geometry">
            <mxPoint x="4020" y="1760" as="targetPoint" />
            <Array as="points">
              <mxPoint x="4320" y="2530" />
              <mxPoint x="4320" y="1750" />
              <mxPoint x="4010" y="1750" />
              <mxPoint x="4010" y="1740" />
              <mxPoint x="3991" y="1740" />
            </Array>
          </mxGeometry>
        </mxCell>
        <mxCell id="t4iPXFJpdFiJiGYDeRWr-167" value="Add/ Remove" style="rhombus;whiteSpace=wrap;html=1;shadow=0;" vertex="1" parent="1">
          <mxGeometry x="3311.36" y="2490" width="80" height="80" as="geometry" />
        </mxCell>
        <mxCell id="t4iPXFJpdFiJiGYDeRWr-168" style="edgeStyle=orthogonalEdgeStyle;rounded=0;orthogonalLoop=1;jettySize=auto;html=1;entryX=0.5;entryY=0;entryDx=0;entryDy=0;shadow=0;startArrow=none;startFill=0;startSize=5;endArrow=none;endFill=0;strokeColor=#000000;" edge="1" parent="1" target="t4iPXFJpdFiJiGYDeRWr-63">
          <mxGeometry relative="1" as="geometry">
            <Array as="points">
              <mxPoint x="2420" y="1360" />
            </Array>
            <mxPoint x="2420.0000000000005" y="1210" as="sourcePoint" />
          </mxGeometry>
        </mxCell>
        <mxCell id="t4iPXFJpdFiJiGYDeRWr-169" value="&lt;span id=&quot;docs-internal-guid-8c73947a-7fff-4d07-964e-b13b411e3868&quot;&gt;&lt;span style=&quot;font-size: 14pt ; font-family: &amp;#34;times new roman&amp;#34; ; background-color: transparent ; vertical-align: baseline&quot;&gt;Advertisement &lt;/span&gt;&lt;/span&gt;" style="rounded=0;whiteSpace=wrap;html=1;" vertex="1" parent="1">
          <mxGeometry x="3510" y="2710" width="120" height="40" as="geometry" />
        </mxCell>
        <mxCell id="t4iPXFJpdFiJiGYDeRWr-170" style="edgeStyle=orthogonalEdgeStyle;rounded=0;orthogonalLoop=1;jettySize=auto;html=1;entryX=1;entryY=0.75;entryDx=0;entryDy=0;endArrow=none;endFill=0;" edge="1" parent="1" source="t4iPXFJpdFiJiGYDeRWr-172" target="t4iPXFJpdFiJiGYDeRWr-157">
          <mxGeometry relative="1" as="geometry" />
        </mxCell>
        <mxCell id="t4iPXFJpdFiJiGYDeRWr-171" style="edgeStyle=orthogonalEdgeStyle;rounded=0;orthogonalLoop=1;jettySize=auto;html=1;entryX=0;entryY=0.5;entryDx=0;entryDy=0;endArrow=none;endFill=0;" edge="1" parent="1" source="t4iPXFJpdFiJiGYDeRWr-172" target="t4iPXFJpdFiJiGYDeRWr-169">
          <mxGeometry relative="1" as="geometry" />
        </mxCell>
        <mxCell id="t4iPXFJpdFiJiGYDeRWr-172" value="Handle" style="rhombus;whiteSpace=wrap;html=1;" vertex="1" parent="1">
          <mxGeometry x="3296.18" y="2690" width="80" height="80" as="geometry" />
        </mxCell>
        <mxCell id="t4iPXFJpdFiJiGYDeRWr-173" style="edgeStyle=orthogonalEdgeStyle;rounded=0;orthogonalLoop=1;jettySize=auto;html=1;entryX=0.5;entryY=1;entryDx=0;entryDy=0;endArrow=none;endFill=0;" edge="1" parent="1" source="t4iPXFJpdFiJiGYDeRWr-177" target="t4iPXFJpdFiJiGYDeRWr-162">
          <mxGeometry relative="1" as="geometry" />
        </mxCell>
        <mxCell id="t4iPXFJpdFiJiGYDeRWr-174" style="edgeStyle=orthogonalEdgeStyle;rounded=0;orthogonalLoop=1;jettySize=auto;html=1;entryX=0.5;entryY=1;entryDx=0;entryDy=0;endArrow=none;endFill=0;" edge="1" parent="1" source="t4iPXFJpdFiJiGYDeRWr-177" target="t4iPXFJpdFiJiGYDeRWr-159">
          <mxGeometry relative="1" as="geometry">
            <Array as="points">
              <mxPoint x="3306" y="2460" />
              <mxPoint x="2650" y="2460" />
            </Array>
          </mxGeometry>
        </mxCell>
        <mxCell id="t4iPXFJpdFiJiGYDeRWr-175" style="edgeStyle=orthogonalEdgeStyle;rounded=0;orthogonalLoop=1;jettySize=auto;html=1;endArrow=none;endFill=0;entryX=0.5;entryY=0;entryDx=0;entryDy=0;" edge="1" parent="1" source="t4iPXFJpdFiJiGYDeRWr-177" target="t4iPXFJpdFiJiGYDeRWr-167">
          <mxGeometry relative="1" as="geometry">
            <mxPoint x="3350" y="2480" as="targetPoint" />
            <Array as="points">
              <mxPoint x="3320" y="2450" />
              <mxPoint x="3350" y="2450" />
              <mxPoint x="3350" y="2490" />
            </Array>
          </mxGeometry>
        </mxCell>
        <mxCell id="t4iPXFJpdFiJiGYDeRWr-176" style="edgeStyle=orthogonalEdgeStyle;rounded=0;orthogonalLoop=1;jettySize=auto;html=1;entryX=0.5;entryY=1;entryDx=0;entryDy=0;endArrow=none;endFill=0;" edge="1" parent="1" source="t4iPXFJpdFiJiGYDeRWr-177" target="t4iPXFJpdFiJiGYDeRWr-172">
          <mxGeometry relative="1" as="geometry">
            <Array as="points">
              <mxPoint x="3470" y="2400" />
              <mxPoint x="3470" y="2790" />
              <mxPoint x="3336" y="2790" />
            </Array>
          </mxGeometry>
        </mxCell>
        <mxCell id="t4iPXFJpdFiJiGYDeRWr-177" value="&lt;font style=&quot;font-size: 16px&quot;&gt;Employee&lt;/font&gt;" style="rounded=0;whiteSpace=wrap;html=1;" vertex="1" parent="1">
          <mxGeometry x="3261.36" y="2380" width="88.64" height="40" as="geometry" />
        </mxCell>
        <mxCell id="t4iPXFJpdFiJiGYDeRWr-178" style="edgeStyle=orthogonalEdgeStyle;rounded=0;orthogonalLoop=1;jettySize=auto;html=1;entryX=0.5;entryY=0;entryDx=0;entryDy=0;endArrow=none;endFill=0;" edge="1" parent="1" source="t4iPXFJpdFiJiGYDeRWr-179" target="t4iPXFJpdFiJiGYDeRWr-181">
          <mxGeometry relative="1" as="geometry" />
        </mxCell>
        <mxCell id="t4iPXFJpdFiJiGYDeRWr-179" value="&lt;span id=&quot;docs-internal-guid-cb024a1b-7fff-3c25-0731-0c3136227c48&quot;&gt;&lt;span style=&quot;font-size: 14pt ; font-family: &amp;#34;times new roman&amp;#34; ; background-color: transparent ; vertical-align: baseline&quot;&gt;Courier&lt;/span&gt;&lt;/span&gt;" style="rounded=0;whiteSpace=wrap;html=1;" vertex="1" parent="1">
          <mxGeometry x="3640" y="1471" width="80" height="40" as="geometry" />
        </mxCell>
        <mxCell id="t4iPXFJpdFiJiGYDeRWr-180" style="edgeStyle=orthogonalEdgeStyle;rounded=0;orthogonalLoop=1;jettySize=auto;html=1;entryX=1;entryY=0.75;entryDx=0;entryDy=0;endArrow=none;endFill=0;" edge="1" parent="1" source="t4iPXFJpdFiJiGYDeRWr-181" target="t4iPXFJpdFiJiGYDeRWr-39">
          <mxGeometry relative="1" as="geometry" />
        </mxCell>
        <mxCell id="t4iPXFJpdFiJiGYDeRWr-181" value="Transfer" style="rhombus;whiteSpace=wrap;html=1;" vertex="1" parent="1">
          <mxGeometry x="3640" y="1820" width="80" height="80" as="geometry" />
        </mxCell>
        <mxCell id="t4iPXFJpdFiJiGYDeRWr-182" value="&lt;span id=&quot;docs-internal-guid-f647a932-7fff-8abb-58c3-638826aaac5b&quot;&gt;&lt;span style=&quot;font-size: 14pt ; font-family: &amp;#34;times new roman&amp;#34; ; background-color: transparent ; vertical-align: baseline&quot;&gt;Career&lt;/span&gt;&lt;/span&gt;" style="rounded=0;whiteSpace=wrap;html=1;" vertex="1" parent="1">
          <mxGeometry x="2760" y="3070" width="80" height="40" as="geometry" />
        </mxCell>
        <mxCell id="t4iPXFJpdFiJiGYDeRWr-183" style="edgeStyle=orthogonalEdgeStyle;rounded=0;orthogonalLoop=1;jettySize=auto;html=1;entryX=0.5;entryY=0;entryDx=0;entryDy=0;endArrow=none;endFill=0;" edge="1" parent="1" source="t4iPXFJpdFiJiGYDeRWr-185" target="t4iPXFJpdFiJiGYDeRWr-182">
          <mxGeometry relative="1" as="geometry" />
        </mxCell>
        <mxCell id="t4iPXFJpdFiJiGYDeRWr-184" style="edgeStyle=orthogonalEdgeStyle;rounded=0;orthogonalLoop=1;jettySize=auto;html=1;entryX=0.25;entryY=1;entryDx=0;entryDy=0;endArrow=none;endFill=0;" edge="1" parent="1" source="t4iPXFJpdFiJiGYDeRWr-185" target="t4iPXFJpdFiJiGYDeRWr-157">
          <mxGeometry relative="1" as="geometry">
            <Array as="points">
              <mxPoint x="2950" y="2860" />
              <mxPoint x="2950" y="2540" />
            </Array>
          </mxGeometry>
        </mxCell>
        <mxCell id="t4iPXFJpdFiJiGYDeRWr-185" value="Handle" style="rhombus;whiteSpace=wrap;html=1;" vertex="1" parent="1">
          <mxGeometry x="2760" y="2820" width="80" height="80" as="geometry" />
        </mxCell>
        <mxCell id="t4iPXFJpdFiJiGYDeRWr-186" value="OFFER" style="ellipse;whiteSpace=wrap;html=1;align=center;" vertex="1" parent="1">
          <mxGeometry x="1770" y="1320" width="100" height="30" as="geometry" />
        </mxCell>
        <mxCell id="t4iPXFJpdFiJiGYDeRWr-187" value="COMBO_ID" style="ellipse;whiteSpace=wrap;html=1;align=center;fontStyle=4;" vertex="1" parent="1">
          <mxGeometry x="1700" y="1350" width="100" height="40" as="geometry" />
        </mxCell>
        <mxCell id="t4iPXFJpdFiJiGYDeRWr-188" value="PRODUCT_ID" style="ellipse;whiteSpace=wrap;html=1;align=center;fontStyle=4;" vertex="1" parent="1">
          <mxGeometry x="1890" y="1320" width="100" height="40" as="geometry" />
        </mxCell>
        <mxCell id="t4iPXFJpdFiJiGYDeRWr-189" value="REVIEW_ID" style="ellipse;whiteSpace=wrap;html=1;align=center;fontStyle=4;" vertex="1" parent="1">
          <mxGeometry x="1920" y="1520" width="100" height="40" as="geometry" />
        </mxCell>
        <mxCell id="t4iPXFJpdFiJiGYDeRWr-190" value="STAR" style="ellipse;whiteSpace=wrap;html=1;align=center;" vertex="1" parent="1">
          <mxGeometry x="1950" y="1590" width="100" height="40" as="geometry" />
        </mxCell>
        <mxCell id="t4iPXFJpdFiJiGYDeRWr-191" value="LIKE_DISLIKE" style="ellipse;whiteSpace=wrap;html=1;align=center;" vertex="1" parent="1">
          <mxGeometry x="1700" y="1590" width="100" height="40" as="geometry" />
        </mxCell>
        <mxCell id="t4iPXFJpdFiJiGYDeRWr-192" value="TITLE" style="ellipse;whiteSpace=wrap;html=1;align=center;" vertex="1" parent="1">
          <mxGeometry x="1880" y="1480" width="100" height="40" as="geometry" />
        </mxCell>
        <mxCell id="t4iPXFJpdFiJiGYDeRWr-193" value="DESCRIPTION" style="ellipse;whiteSpace=wrap;html=1;align=center;" vertex="1" parent="1">
          <mxGeometry x="1790" y="1460" width="100" height="40" as="geometry" />
        </mxCell>
        <mxCell id="t4iPXFJpdFiJiGYDeRWr-194" value="IMAGE" style="ellipse;whiteSpace=wrap;html=1;align=center;" vertex="1" parent="1">
          <mxGeometry x="1720" y="1491" width="100" height="40" as="geometry" />
        </mxCell>
        <mxCell id="t4iPXFJpdFiJiGYDeRWr-195" value="DATE_TIME" style="ellipse;whiteSpace=wrap;html=1;align=center;" vertex="1" parent="1">
          <mxGeometry x="1690" y="1538" width="100" height="40" as="geometry" />
        </mxCell>
        <mxCell id="t4iPXFJpdFiJiGYDeRWr-196" value="CERTIFIED BUYER_NAME" style="ellipse;whiteSpace=wrap;html=1;align=center;" vertex="1" parent="1">
          <mxGeometry x="1700" y="1685" width="100" height="40" as="geometry" />
        </mxCell>
        <mxCell id="t4iPXFJpdFiJiGYDeRWr-197" value="QUESTION" style="ellipse;whiteSpace=wrap;html=1;align=center;" vertex="1" parent="1">
          <mxGeometry x="1730" y="1640" width="100" height="40" as="geometry" />
        </mxCell>
        <mxCell id="t4iPXFJpdFiJiGYDeRWr-198" value="ANSWER" style="ellipse;whiteSpace=wrap;html=1;align=center;" vertex="1" parent="1">
          <mxGeometry x="1830" y="1618" width="100" height="40" as="geometry" />
        </mxCell>
        <mxCell id="t4iPXFJpdFiJiGYDeRWr-199" value="LIKE_DISLIKE" style="ellipse;whiteSpace=wrap;html=1;align=center;" vertex="1" parent="1">
          <mxGeometry x="1921" y="1648" width="100" height="40" as="geometry" />
        </mxCell>
        <mxCell id="t4iPXFJpdFiJiGYDeRWr-200" value="" style="endArrow=none;html=1;rounded=0;exitX=0.712;exitY=1.075;exitDx=0;exitDy=0;exitPerimeter=0;" edge="1" parent="1" source="t4iPXFJpdFiJiGYDeRWr-187">
          <mxGeometry relative="1" as="geometry">
            <mxPoint x="1870" y="1520" as="sourcePoint" />
            <mxPoint x="1811" y="1403.4957805907175" as="targetPoint" />
          </mxGeometry>
        </mxCell>
        <mxCell id="t4iPXFJpdFiJiGYDeRWr-201" value="" style="endArrow=none;html=1;rounded=0;exitX=1;exitY=0.75;exitDx=0;exitDy=0;" edge="1" parent="1" target="t4iPXFJpdFiJiGYDeRWr-190">
          <mxGeometry relative="1" as="geometry">
            <mxPoint x="1920" y="1588" as="sourcePoint" />
            <mxPoint x="2030" y="1520" as="targetPoint" />
          </mxGeometry>
        </mxCell>
        <mxCell id="t4iPXFJpdFiJiGYDeRWr-202" value="" style="endArrow=none;html=1;rounded=0;exitX=1;exitY=0;exitDx=0;exitDy=0;" edge="1" parent="1" source="t4iPXFJpdFiJiGYDeRWr-191" target="t4iPXFJpdFiJiGYDeRWr-311">
          <mxGeometry relative="1" as="geometry">
            <mxPoint x="1870" y="1520" as="sourcePoint" />
            <mxPoint x="1810" y="1578" as="targetPoint" />
          </mxGeometry>
        </mxCell>
        <mxCell id="t4iPXFJpdFiJiGYDeRWr-203" value="" style="endArrow=none;html=1;rounded=0;exitX=0.5;exitY=0;exitDx=0;exitDy=0;" edge="1" parent="1" target="t4iPXFJpdFiJiGYDeRWr-195">
          <mxGeometry relative="1" as="geometry">
            <mxPoint x="1865" y="1558" as="sourcePoint" />
            <mxPoint x="2030" y="1520" as="targetPoint" />
          </mxGeometry>
        </mxCell>
        <mxCell id="t4iPXFJpdFiJiGYDeRWr-204" value="" style="endArrow=none;html=1;rounded=0;exitX=0.5;exitY=0;exitDx=0;exitDy=0;entryX=1;entryY=1;entryDx=0;entryDy=0;" edge="1" parent="1" target="t4iPXFJpdFiJiGYDeRWr-194">
          <mxGeometry relative="1" as="geometry">
            <mxPoint x="1865" y="1558" as="sourcePoint" />
            <mxPoint x="2030" y="1520" as="targetPoint" />
          </mxGeometry>
        </mxCell>
        <mxCell id="t4iPXFJpdFiJiGYDeRWr-205" value="" style="endArrow=none;html=1;rounded=0;exitX=0.5;exitY=0;exitDx=0;exitDy=0;entryX=0.692;entryY=1.005;entryDx=0;entryDy=0;entryPerimeter=0;" edge="1" parent="1" target="t4iPXFJpdFiJiGYDeRWr-193">
          <mxGeometry relative="1" as="geometry">
            <mxPoint x="1865" y="1558" as="sourcePoint" />
            <mxPoint x="2030" y="1520" as="targetPoint" />
          </mxGeometry>
        </mxCell>
        <mxCell id="t4iPXFJpdFiJiGYDeRWr-206" value="" style="endArrow=none;html=1;rounded=0;exitX=0.5;exitY=0;exitDx=0;exitDy=0;" edge="1" parent="1">
          <mxGeometry relative="1" as="geometry">
            <mxPoint x="1865" y="1558" as="sourcePoint" />
            <mxPoint x="1910" y="1520" as="targetPoint" />
          </mxGeometry>
        </mxCell>
        <mxCell id="t4iPXFJpdFiJiGYDeRWr-207" value="" style="endArrow=none;html=1;rounded=0;exitX=0.5;exitY=0;exitDx=0;exitDy=0;entryX=0.08;entryY=0.785;entryDx=0;entryDy=0;entryPerimeter=0;" edge="1" parent="1" target="t4iPXFJpdFiJiGYDeRWr-189">
          <mxGeometry relative="1" as="geometry">
            <mxPoint x="1865" y="1558" as="sourcePoint" />
            <mxPoint x="2030" y="1520" as="targetPoint" />
          </mxGeometry>
        </mxCell>
        <mxCell id="t4iPXFJpdFiJiGYDeRWr-208" value="" style="endArrow=none;html=1;rounded=0;exitX=0.728;exitY=0.1;exitDx=0;exitDy=0;exitPerimeter=0;" edge="1" parent="1" source="t4iPXFJpdFiJiGYDeRWr-196">
          <mxGeometry relative="1" as="geometry">
            <mxPoint x="1870" y="1520" as="sourcePoint" />
            <mxPoint x="1865" y="1687" as="targetPoint" />
          </mxGeometry>
        </mxCell>
        <mxCell id="t4iPXFJpdFiJiGYDeRWr-209" value="" style="endArrow=none;html=1;rounded=0;exitX=0.5;exitY=0;exitDx=0;exitDy=0;entryX=1;entryY=1;entryDx=0;entryDy=0;" edge="1" parent="1" target="t4iPXFJpdFiJiGYDeRWr-197">
          <mxGeometry relative="1" as="geometry">
            <mxPoint x="1865" y="1688" as="sourcePoint" />
            <mxPoint x="2030" y="1520" as="targetPoint" />
          </mxGeometry>
        </mxCell>
        <mxCell id="t4iPXFJpdFiJiGYDeRWr-210" value="" style="endArrow=none;html=1;rounded=0;exitX=0.5;exitY=0;exitDx=0;exitDy=0;entryX=0.428;entryY=1.035;entryDx=0;entryDy=0;entryPerimeter=0;" edge="1" parent="1" target="t4iPXFJpdFiJiGYDeRWr-198">
          <mxGeometry relative="1" as="geometry">
            <mxPoint x="1865" y="1688" as="sourcePoint" />
            <mxPoint x="2030" y="1520" as="targetPoint" />
          </mxGeometry>
        </mxCell>
        <mxCell id="t4iPXFJpdFiJiGYDeRWr-211" value="" style="endArrow=none;html=1;rounded=0;exitX=0.5;exitY=0;exitDx=0;exitDy=0;entryX=0;entryY=0.5;entryDx=0;entryDy=0;" edge="1" parent="1" target="t4iPXFJpdFiJiGYDeRWr-199">
          <mxGeometry relative="1" as="geometry">
            <mxPoint x="1865" y="1688" as="sourcePoint" />
            <mxPoint x="2000" y="1670" as="targetPoint" />
          </mxGeometry>
        </mxCell>
        <mxCell id="t4iPXFJpdFiJiGYDeRWr-212" value="" style="endArrow=none;html=1;rounded=0;" edge="1" parent="1" source="t4iPXFJpdFiJiGYDeRWr-188">
          <mxGeometry relative="1" as="geometry">
            <mxPoint x="1930" y="1560" as="sourcePoint" />
            <mxPoint x="1884.974358974359" y="1398" as="targetPoint" />
          </mxGeometry>
        </mxCell>
        <mxCell id="t4iPXFJpdFiJiGYDeRWr-213" value="" style="endArrow=none;html=1;rounded=0;exitX=0.684;exitY=1.073;exitDx=0;exitDy=0;exitPerimeter=0;entryX=0.5;entryY=0;entryDx=0;entryDy=0;" edge="1" parent="1" source="t4iPXFJpdFiJiGYDeRWr-186">
          <mxGeometry relative="1" as="geometry">
            <mxPoint x="1930" y="1560" as="sourcePoint" />
            <mxPoint x="1866" y="1398" as="targetPoint" />
          </mxGeometry>
        </mxCell>
        <mxCell id="t4iPXFJpdFiJiGYDeRWr-214" value="BRAND_NAME" style="ellipse;whiteSpace=wrap;html=1;align=center;" vertex="1" parent="1">
          <mxGeometry x="1760" y="1748" width="100" height="40" as="geometry" />
        </mxCell>
        <mxCell id="t4iPXFJpdFiJiGYDeRWr-215" value="CATEGORY_ID" style="ellipse;whiteSpace=wrap;html=1;align=center;fontStyle=4;" vertex="1" parent="1">
          <mxGeometry x="1870" y="1740" width="100" height="40" as="geometry" />
        </mxCell>
        <mxCell id="t4iPXFJpdFiJiGYDeRWr-216" value="" style="endArrow=none;html=1;rounded=0;entryX=0.75;entryY=0;entryDx=0;entryDy=0;" edge="1" parent="1" source="t4iPXFJpdFiJiGYDeRWr-215">
          <mxGeometry relative="1" as="geometry">
            <mxPoint x="1830" y="1720" as="sourcePoint" />
            <mxPoint x="1892.5" y="1808" as="targetPoint" />
          </mxGeometry>
        </mxCell>
        <mxCell id="t4iPXFJpdFiJiGYDeRWr-217" value="" style="endArrow=none;html=1;rounded=0;exitX=0.25;exitY=0;exitDx=0;exitDy=0;" edge="1" parent="1" target="t4iPXFJpdFiJiGYDeRWr-214">
          <mxGeometry relative="1" as="geometry">
            <mxPoint x="1837.5" y="1808" as="sourcePoint" />
            <mxPoint x="1990" y="1720" as="targetPoint" />
          </mxGeometry>
        </mxCell>
        <mxCell id="t4iPXFJpdFiJiGYDeRWr-218" value="" style="endArrow=none;html=1;rounded=0;" edge="1" parent="1" source="t4iPXFJpdFiJiGYDeRWr-219">
          <mxGeometry relative="1" as="geometry">
            <mxPoint x="2440" y="970" as="sourcePoint" />
            <mxPoint x="2427" y="1030" as="targetPoint" />
          </mxGeometry>
        </mxCell>
        <mxCell id="t4iPXFJpdFiJiGYDeRWr-219" value="Category_ID" style="ellipse;whiteSpace=wrap;html=1;align=center;fontStyle=4;" vertex="1" parent="1">
          <mxGeometry x="2377" y="930" width="100" height="40" as="geometry" />
        </mxCell>
        <mxCell id="t4iPXFJpdFiJiGYDeRWr-220" value="C_ID" style="ellipse;whiteSpace=wrap;html=1;align=center;fontStyle=4;" vertex="1" parent="1">
          <mxGeometry x="2250" y="2660" width="100" height="40" as="geometry" />
        </mxCell>
        <mxCell id="t4iPXFJpdFiJiGYDeRWr-221" value="MODE" style="ellipse;whiteSpace=wrap;html=1;align=center;" vertex="1" parent="1">
          <mxGeometry x="2314" y="2610" width="100" height="40" as="geometry" />
        </mxCell>
        <mxCell id="t4iPXFJpdFiJiGYDeRWr-222" value="DETAIL" style="ellipse;whiteSpace=wrap;html=1;align=center;" vertex="1" parent="1">
          <mxGeometry x="2440" y="2610" width="100" height="40" as="geometry" />
        </mxCell>
        <mxCell id="t4iPXFJpdFiJiGYDeRWr-223" value="" style="endArrow=none;html=1;rounded=0;exitX=0.56;exitY=-0.015;exitDx=0;exitDy=0;exitPerimeter=0;" edge="1" parent="1" source="t4iPXFJpdFiJiGYDeRWr-139" target="t4iPXFJpdFiJiGYDeRWr-222">
          <mxGeometry relative="1" as="geometry">
            <mxPoint x="2390" y="2670" as="sourcePoint" />
            <mxPoint x="2550" y="2670" as="targetPoint" />
          </mxGeometry>
        </mxCell>
        <mxCell id="t4iPXFJpdFiJiGYDeRWr-224" value="" style="endArrow=none;html=1;rounded=0;exitX=0.25;exitY=0;exitDx=0;exitDy=0;" edge="1" parent="1" source="t4iPXFJpdFiJiGYDeRWr-139" target="t4iPXFJpdFiJiGYDeRWr-221">
          <mxGeometry relative="1" as="geometry">
            <mxPoint x="2377" y="2670" as="sourcePoint" />
            <mxPoint x="2537" y="2670" as="targetPoint" />
          </mxGeometry>
        </mxCell>
        <mxCell id="t4iPXFJpdFiJiGYDeRWr-225" value="" style="endArrow=none;html=1;rounded=0;exitX=0.147;exitY=0.005;exitDx=0;exitDy=0;exitPerimeter=0;" edge="1" parent="1" source="t4iPXFJpdFiJiGYDeRWr-139" target="t4iPXFJpdFiJiGYDeRWr-220">
          <mxGeometry relative="1" as="geometry">
            <mxPoint x="2390" y="2670" as="sourcePoint" />
            <mxPoint x="2550" y="2670" as="targetPoint" />
          </mxGeometry>
        </mxCell>
        <mxCell id="t4iPXFJpdFiJiGYDeRWr-226" value="PACKAGE" style="ellipse;whiteSpace=wrap;html=1;align=center;" vertex="1" parent="1">
          <mxGeometry x="2890" y="3000" width="100" height="40" as="geometry" />
        </mxCell>
        <mxCell id="t4iPXFJpdFiJiGYDeRWr-227" value="JOB_DESCRIPTION" style="ellipse;whiteSpace=wrap;html=1;align=center;" vertex="1" parent="1">
          <mxGeometry x="2810" y="2960" width="120" height="40" as="geometry" />
        </mxCell>
        <mxCell id="t4iPXFJpdFiJiGYDeRWr-228" value="JOB_TITLE" style="ellipse;whiteSpace=wrap;html=1;align=center;" vertex="1" parent="1">
          <mxGeometry x="2685" y="2960" width="100" height="40" as="geometry" />
        </mxCell>
        <mxCell id="t4iPXFJpdFiJiGYDeRWr-229" value="CAREER_ID" style="ellipse;whiteSpace=wrap;html=1;align=center;fontStyle=4;" vertex="1" parent="1">
          <mxGeometry x="2620" y="3000" width="100" height="40" as="geometry" />
        </mxCell>
        <mxCell id="t4iPXFJpdFiJiGYDeRWr-230" value="EXPERIANCE" style="ellipse;whiteSpace=wrap;html=1;align=center;" vertex="1" parent="1">
          <mxGeometry x="2600" y="3050" width="100" height="40" as="geometry" />
        </mxCell>
        <mxCell id="t4iPXFJpdFiJiGYDeRWr-231" value="" style="endArrow=none;html=1;rounded=0;exitX=0.5;exitY=0;exitDx=0;exitDy=0;entryX=0.5;entryY=1;entryDx=0;entryDy=0;" edge="1" parent="1" source="t4iPXFJpdFiJiGYDeRWr-182" target="t4iPXFJpdFiJiGYDeRWr-226">
          <mxGeometry relative="1" as="geometry">
            <mxPoint x="2770" y="3040" as="sourcePoint" />
            <mxPoint x="2930" y="3040" as="targetPoint" />
          </mxGeometry>
        </mxCell>
        <mxCell id="t4iPXFJpdFiJiGYDeRWr-232" value="" style="endArrow=none;html=1;rounded=0;entryX=0.5;entryY=1;entryDx=0;entryDy=0;" edge="1" parent="1" target="t4iPXFJpdFiJiGYDeRWr-227">
          <mxGeometry relative="1" as="geometry">
            <mxPoint x="2800" y="3070" as="sourcePoint" />
            <mxPoint x="2930" y="3040" as="targetPoint" />
          </mxGeometry>
        </mxCell>
        <mxCell id="t4iPXFJpdFiJiGYDeRWr-233" value="" style="endArrow=none;html=1;rounded=0;entryX=0.5;entryY=0;entryDx=0;entryDy=0;" edge="1" parent="1" source="t4iPXFJpdFiJiGYDeRWr-228" target="t4iPXFJpdFiJiGYDeRWr-182">
          <mxGeometry relative="1" as="geometry">
            <mxPoint x="2770" y="3040" as="sourcePoint" />
            <mxPoint x="2930" y="3040" as="targetPoint" />
          </mxGeometry>
        </mxCell>
        <mxCell id="t4iPXFJpdFiJiGYDeRWr-234" value="" style="endArrow=none;html=1;rounded=0;entryX=0.5;entryY=0;entryDx=0;entryDy=0;" edge="1" parent="1" source="t4iPXFJpdFiJiGYDeRWr-229" target="t4iPXFJpdFiJiGYDeRWr-182">
          <mxGeometry relative="1" as="geometry">
            <mxPoint x="2770" y="3040" as="sourcePoint" />
            <mxPoint x="2930" y="3040" as="targetPoint" />
          </mxGeometry>
        </mxCell>
        <mxCell id="t4iPXFJpdFiJiGYDeRWr-235" value="" style="endArrow=none;html=1;rounded=0;exitX=0;exitY=0.25;exitDx=0;exitDy=0;" edge="1" parent="1" source="t4iPXFJpdFiJiGYDeRWr-182" target="t4iPXFJpdFiJiGYDeRWr-230">
          <mxGeometry relative="1" as="geometry">
            <mxPoint x="2770" y="3040" as="sourcePoint" />
            <mxPoint x="2710" y="3070" as="targetPoint" />
          </mxGeometry>
        </mxCell>
        <mxCell id="t4iPXFJpdFiJiGYDeRWr-236" value="PRODUCT_ID" style="ellipse;whiteSpace=wrap;html=1;align=center;fontStyle=4;" vertex="1" parent="1">
          <mxGeometry x="3680" y="2710" width="100" height="40" as="geometry" />
        </mxCell>
        <mxCell id="t4iPXFJpdFiJiGYDeRWr-237" value="OFFER_ID" style="ellipse;whiteSpace=wrap;html=1;align=center;fontStyle=4;" vertex="1" parent="1">
          <mxGeometry x="3650" y="2660" width="100" height="40" as="geometry" />
        </mxCell>
        <mxCell id="t4iPXFJpdFiJiGYDeRWr-238" value="AD_ID" style="ellipse;whiteSpace=wrap;html=1;align=center;fontStyle=4;" vertex="1" parent="1">
          <mxGeometry x="3500" y="2600" width="100" height="40" as="geometry" />
        </mxCell>
        <mxCell id="t4iPXFJpdFiJiGYDeRWr-239" value="DATE" style="ellipse;whiteSpace=wrap;html=1;align=center;" vertex="1" parent="1">
          <mxGeometry x="3590" y="2620" width="100" height="40" as="geometry" />
        </mxCell>
        <mxCell id="t4iPXFJpdFiJiGYDeRWr-240" value="" style="endArrow=none;html=1;rounded=0;entryX=0;entryY=0.5;entryDx=0;entryDy=0;" edge="1" parent="1" source="t4iPXFJpdFiJiGYDeRWr-169" target="t4iPXFJpdFiJiGYDeRWr-236">
          <mxGeometry relative="1" as="geometry">
            <mxPoint x="3510" y="2820" as="sourcePoint" />
            <mxPoint x="3670" y="2820" as="targetPoint" />
          </mxGeometry>
        </mxCell>
        <mxCell id="t4iPXFJpdFiJiGYDeRWr-241" value="" style="endArrow=none;html=1;rounded=0;" edge="1" parent="1" source="t4iPXFJpdFiJiGYDeRWr-169" target="t4iPXFJpdFiJiGYDeRWr-237">
          <mxGeometry relative="1" as="geometry">
            <mxPoint x="3510" y="2820" as="sourcePoint" />
            <mxPoint x="3670" y="2820" as="targetPoint" />
          </mxGeometry>
        </mxCell>
        <mxCell id="t4iPXFJpdFiJiGYDeRWr-242" value="" style="endArrow=none;html=1;rounded=0;" edge="1" parent="1" source="t4iPXFJpdFiJiGYDeRWr-239" target="t4iPXFJpdFiJiGYDeRWr-169">
          <mxGeometry relative="1" as="geometry">
            <mxPoint x="3520" y="2810" as="sourcePoint" />
            <mxPoint x="3680" y="2810" as="targetPoint" />
          </mxGeometry>
        </mxCell>
        <mxCell id="t4iPXFJpdFiJiGYDeRWr-243" value="" style="endArrow=none;html=1;rounded=0;" edge="1" parent="1" source="t4iPXFJpdFiJiGYDeRWr-238" target="t4iPXFJpdFiJiGYDeRWr-169">
          <mxGeometry relative="1" as="geometry">
            <mxPoint x="3510" y="2820" as="sourcePoint" />
            <mxPoint x="3670" y="2820" as="targetPoint" />
          </mxGeometry>
        </mxCell>
        <mxCell id="t4iPXFJpdFiJiGYDeRWr-244" value="USERNAME" style="ellipse;whiteSpace=wrap;html=1;align=center;fontStyle=4;" vertex="1" parent="1">
          <mxGeometry x="2820" y="2530" width="100" height="40" as="geometry" />
        </mxCell>
        <mxCell id="t4iPXFJpdFiJiGYDeRWr-245" value="PASSWORD" style="ellipse;whiteSpace=wrap;html=1;align=center;" vertex="1" parent="1">
          <mxGeometry x="3030" y="2540" width="100" height="40" as="geometry" />
        </mxCell>
        <mxCell id="t4iPXFJpdFiJiGYDeRWr-246" value="ADMIN_ID" style="ellipse;whiteSpace=wrap;html=1;align=center;fontStyle=4;" vertex="1" parent="1">
          <mxGeometry x="2840" y="2460" width="100" height="40" as="geometry" />
        </mxCell>
        <mxCell id="t4iPXFJpdFiJiGYDeRWr-247" value="TYPE" style="ellipse;whiteSpace=wrap;html=1;align=center;" vertex="1" parent="1">
          <mxGeometry x="3034" y="2470" width="100" height="40" as="geometry" />
        </mxCell>
        <mxCell id="t4iPXFJpdFiJiGYDeRWr-248" value="" style="endArrow=none;html=1;rounded=0;" edge="1" parent="1" source="t4iPXFJpdFiJiGYDeRWr-157" target="t4iPXFJpdFiJiGYDeRWr-245">
          <mxGeometry relative="1" as="geometry">
            <mxPoint x="2980" y="2650" as="sourcePoint" />
            <mxPoint x="3140" y="2650" as="targetPoint" />
          </mxGeometry>
        </mxCell>
        <mxCell id="t4iPXFJpdFiJiGYDeRWr-249" value="" style="endArrow=none;html=1;rounded=0;" edge="1" parent="1" source="t4iPXFJpdFiJiGYDeRWr-247" target="t4iPXFJpdFiJiGYDeRWr-157">
          <mxGeometry relative="1" as="geometry">
            <mxPoint x="2980" y="2650" as="sourcePoint" />
            <mxPoint x="3140" y="2650" as="targetPoint" />
          </mxGeometry>
        </mxCell>
        <mxCell id="t4iPXFJpdFiJiGYDeRWr-250" value="" style="endArrow=none;html=1;rounded=0;entryX=0;entryY=0.75;entryDx=0;entryDy=0;" edge="1" parent="1" source="t4iPXFJpdFiJiGYDeRWr-246" target="t4iPXFJpdFiJiGYDeRWr-157">
          <mxGeometry relative="1" as="geometry">
            <mxPoint x="2980" y="2650" as="sourcePoint" />
            <mxPoint x="3140" y="2650" as="targetPoint" />
          </mxGeometry>
        </mxCell>
        <mxCell id="t4iPXFJpdFiJiGYDeRWr-251" value="" style="endArrow=none;html=1;rounded=0;exitX=1;exitY=1;exitDx=0;exitDy=0;" edge="1" parent="1" source="t4iPXFJpdFiJiGYDeRWr-244" target="t4iPXFJpdFiJiGYDeRWr-157">
          <mxGeometry relative="1" as="geometry">
            <mxPoint x="2980" y="2650" as="sourcePoint" />
            <mxPoint x="3140" y="2650" as="targetPoint" />
          </mxGeometry>
        </mxCell>
        <mxCell id="t4iPXFJpdFiJiGYDeRWr-252" value="TITLE" style="ellipse;whiteSpace=wrap;html=1;align=center;" vertex="1" parent="1">
          <mxGeometry x="1750" y="2071" width="100" height="40" as="geometry" />
        </mxCell>
        <mxCell id="t4iPXFJpdFiJiGYDeRWr-253" value="DESCRIPTION" style="ellipse;whiteSpace=wrap;html=1;align=center;" vertex="1" parent="1">
          <mxGeometry x="1930" y="1974" width="100" height="40" as="geometry" />
        </mxCell>
        <mxCell id="t4iPXFJpdFiJiGYDeRWr-254" value="DATE&amp;nbsp;" style="ellipse;whiteSpace=wrap;html=1;align=center;" vertex="1" parent="1">
          <mxGeometry x="1800" y="1974" width="100" height="40" as="geometry" />
        </mxCell>
        <mxCell id="t4iPXFJpdFiJiGYDeRWr-255" value="N_ID" style="ellipse;whiteSpace=wrap;html=1;align=center;fontStyle=4;" vertex="1" parent="1">
          <mxGeometry x="1700" y="2014" width="100" height="40" as="geometry" />
        </mxCell>
        <mxCell id="t4iPXFJpdFiJiGYDeRWr-256" value="" style="endArrow=none;html=1;rounded=0;exitX=0.4;exitY=0.65;exitDx=0;exitDy=0;exitPerimeter=0;entryX=0.5;entryY=0;entryDx=0;entryDy=0;" edge="1" parent="1" source="t4iPXFJpdFiJiGYDeRWr-253" target="t4iPXFJpdFiJiGYDeRWr-143">
          <mxGeometry relative="1" as="geometry">
            <mxPoint x="1730" y="2220" as="sourcePoint" />
            <mxPoint x="1890" y="2220" as="targetPoint" />
          </mxGeometry>
        </mxCell>
        <mxCell id="t4iPXFJpdFiJiGYDeRWr-257" value="" style="endArrow=none;html=1;rounded=0;" edge="1" parent="1" source="t4iPXFJpdFiJiGYDeRWr-254" target="t4iPXFJpdFiJiGYDeRWr-143">
          <mxGeometry relative="1" as="geometry">
            <mxPoint x="1690" y="2234.33" as="sourcePoint" />
            <mxPoint x="1850" y="2234.33" as="targetPoint" />
          </mxGeometry>
        </mxCell>
        <mxCell id="t4iPXFJpdFiJiGYDeRWr-258" value="" style="endArrow=none;html=1;rounded=0;entryX=0;entryY=0.25;entryDx=0;entryDy=0;" edge="1" parent="1" source="t4iPXFJpdFiJiGYDeRWr-255" target="t4iPXFJpdFiJiGYDeRWr-143">
          <mxGeometry relative="1" as="geometry">
            <mxPoint x="1651" y="2226" as="sourcePoint" />
            <mxPoint x="1811" y="2226" as="targetPoint" />
          </mxGeometry>
        </mxCell>
        <mxCell id="t4iPXFJpdFiJiGYDeRWr-259" value="" style="endArrow=none;html=1;rounded=0;exitX=1;exitY=0;exitDx=0;exitDy=0;" edge="1" parent="1" source="t4iPXFJpdFiJiGYDeRWr-252" target="t4iPXFJpdFiJiGYDeRWr-143">
          <mxGeometry relative="1" as="geometry">
            <mxPoint x="1730" y="2220" as="sourcePoint" />
            <mxPoint x="1890" y="2220" as="targetPoint" />
          </mxGeometry>
        </mxCell>
        <mxCell id="t4iPXFJpdFiJiGYDeRWr-260" value="USER_ID" style="ellipse;whiteSpace=wrap;html=1;align=center;fontStyle=4;" vertex="1" parent="1">
          <mxGeometry x="2250" y="2080" width="100" height="40" as="geometry" />
        </mxCell>
        <mxCell id="t4iPXFJpdFiJiGYDeRWr-261" value="TIMESTAMP" style="ellipse;whiteSpace=wrap;html=1;align=center;" vertex="1" parent="1">
          <mxGeometry x="2450" y="2004" width="100" height="40" as="geometry" />
        </mxCell>
        <mxCell id="t4iPXFJpdFiJiGYDeRWr-262" value="USER_NAME" style="ellipse;whiteSpace=wrap;html=1;align=center;" vertex="1" parent="1">
          <mxGeometry x="2220" y="2028" width="100" height="40" as="geometry" />
        </mxCell>
        <mxCell id="t4iPXFJpdFiJiGYDeRWr-263" value="PASSWORD" style="ellipse;whiteSpace=wrap;html=1;align=center;" vertex="1" parent="1">
          <mxGeometry x="2220" y="1948" width="100" height="40" as="geometry" />
        </mxCell>
        <mxCell id="t4iPXFJpdFiJiGYDeRWr-264" value="STATUS" style="ellipse;whiteSpace=wrap;html=1;align=center;" vertex="1" parent="1">
          <mxGeometry x="2450" y="1958" width="100" height="40" as="geometry" />
        </mxCell>
        <mxCell id="t4iPXFJpdFiJiGYDeRWr-265" value="ADDRESS" style="ellipse;whiteSpace=wrap;html=1;align=center;" vertex="1" parent="1">
          <mxGeometry x="2304" y="2130" width="100" height="40" as="geometry" />
        </mxCell>
        <mxCell id="t4iPXFJpdFiJiGYDeRWr-266" value="" style="endArrow=none;html=1;rounded=0;entryX=0;entryY=1;entryDx=0;entryDy=0;" edge="1" parent="1" source="t4iPXFJpdFiJiGYDeRWr-133" target="t4iPXFJpdFiJiGYDeRWr-264">
          <mxGeometry relative="1" as="geometry">
            <mxPoint x="2470" y="1998" as="sourcePoint" />
            <mxPoint x="2490" y="1878" as="targetPoint" />
          </mxGeometry>
        </mxCell>
        <mxCell id="t4iPXFJpdFiJiGYDeRWr-267" value="" style="endArrow=none;html=1;rounded=0;exitX=0.5;exitY=0;exitDx=0;exitDy=0;" edge="1" parent="1" source="t4iPXFJpdFiJiGYDeRWr-260" target="t4iPXFJpdFiJiGYDeRWr-133">
          <mxGeometry relative="1" as="geometry">
            <mxPoint x="2340" y="1818" as="sourcePoint" />
            <mxPoint x="2430" y="2035.204301075269" as="targetPoint" />
          </mxGeometry>
        </mxCell>
        <mxCell id="t4iPXFJpdFiJiGYDeRWr-268" value="" style="endArrow=none;html=1;rounded=0;exitX=0.924;exitY=0.205;exitDx=0;exitDy=0;exitPerimeter=0;" edge="1" parent="1" source="t4iPXFJpdFiJiGYDeRWr-262" target="t4iPXFJpdFiJiGYDeRWr-133">
          <mxGeometry relative="1" as="geometry">
            <mxPoint x="2340" y="1818" as="sourcePoint" />
            <mxPoint x="2410" y="2048" as="targetPoint" />
          </mxGeometry>
        </mxCell>
        <mxCell id="t4iPXFJpdFiJiGYDeRWr-269" value="" style="endArrow=none;html=1;rounded=0;exitX=0.5;exitY=0;exitDx=0;exitDy=0;" edge="1" parent="1" source="t4iPXFJpdFiJiGYDeRWr-133">
          <mxGeometry relative="1" as="geometry">
            <mxPoint x="2430" y="2008" as="sourcePoint" />
            <mxPoint x="2280" y="2008" as="targetPoint" />
          </mxGeometry>
        </mxCell>
        <mxCell id="t4iPXFJpdFiJiGYDeRWr-270" value="" style="endArrow=none;html=1;rounded=0;" edge="1" parent="1" target="t4iPXFJpdFiJiGYDeRWr-263">
          <mxGeometry relative="1" as="geometry">
            <mxPoint x="2391" y="2051" as="sourcePoint" />
            <mxPoint x="2500" y="1818" as="targetPoint" />
          </mxGeometry>
        </mxCell>
        <mxCell id="t4iPXFJpdFiJiGYDeRWr-271" value="" style="endArrow=none;html=1;rounded=0;entryX=1;entryY=1;entryDx=0;entryDy=0;" edge="1" parent="1" source="t4iPXFJpdFiJiGYDeRWr-133" target="t4iPXFJpdFiJiGYDeRWr-275">
          <mxGeometry relative="1" as="geometry">
            <mxPoint x="2430" y="2008" as="sourcePoint" />
            <mxPoint x="2344.0959374886015" y="1945.5243181735286" as="targetPoint" />
          </mxGeometry>
        </mxCell>
        <mxCell id="t4iPXFJpdFiJiGYDeRWr-272" value="" style="endArrow=none;html=1;rounded=0;entryX=0.674;entryY=0.061;entryDx=0;entryDy=0;entryPerimeter=0;" edge="1" parent="1" source="t4iPXFJpdFiJiGYDeRWr-133" target="t4iPXFJpdFiJiGYDeRWr-265">
          <mxGeometry relative="1" as="geometry">
            <mxPoint x="2450" y="1998" as="sourcePoint" />
            <mxPoint x="2500" y="1818" as="targetPoint" />
          </mxGeometry>
        </mxCell>
        <mxCell id="t4iPXFJpdFiJiGYDeRWr-273" value="" style="endArrow=none;html=1;rounded=0;" edge="1" parent="1" source="t4iPXFJpdFiJiGYDeRWr-133" target="t4iPXFJpdFiJiGYDeRWr-261">
          <mxGeometry relative="1" as="geometry">
            <mxPoint x="2480.4" y="1995.4" as="sourcePoint" />
            <mxPoint x="2500" y="1818" as="targetPoint" />
          </mxGeometry>
        </mxCell>
        <mxCell id="t4iPXFJpdFiJiGYDeRWr-274" value="EMAIL" style="ellipse;whiteSpace=wrap;html=1;align=center;fontStyle=4;" vertex="1" parent="1">
          <mxGeometry x="2190" y="1988" width="100" height="40" as="geometry" />
        </mxCell>
        <mxCell id="t4iPXFJpdFiJiGYDeRWr-275" value="PHONE_NUMBER" style="ellipse;whiteSpace=wrap;html=1;align=center;fontStyle=4;" vertex="1" parent="1">
          <mxGeometry x="2260" y="1910" width="114" height="40" as="geometry" />
        </mxCell>
        <mxCell id="t4iPXFJpdFiJiGYDeRWr-276" value="E_ID" style="ellipse;whiteSpace=wrap;html=1;align=center;fontStyle=4;" vertex="1" parent="1">
          <mxGeometry x="3276.18" y="2302" width="100" height="40" as="geometry" />
        </mxCell>
        <mxCell id="t4iPXFJpdFiJiGYDeRWr-277" value="SALARY" style="ellipse;whiteSpace=wrap;html=1;align=center;" vertex="1" parent="1">
          <mxGeometry x="3376.18" y="2340" width="100" height="40" as="geometry" />
        </mxCell>
        <mxCell id="t4iPXFJpdFiJiGYDeRWr-278" value="DESIGNATION" style="ellipse;whiteSpace=wrap;html=1;align=center;" vertex="1" parent="1">
          <mxGeometry x="3094" y="2226" width="100" height="40" as="geometry" />
        </mxCell>
        <mxCell id="t4iPXFJpdFiJiGYDeRWr-279" value="DOJ" style="ellipse;whiteSpace=wrap;html=1;align=center;" vertex="1" parent="1">
          <mxGeometry x="3030" y="2262" width="100" height="40" as="geometry" />
        </mxCell>
        <mxCell id="t4iPXFJpdFiJiGYDeRWr-280" value="MOBILE_NO" style="ellipse;whiteSpace=wrap;html=1;align=center;" vertex="1" parent="1">
          <mxGeometry x="3004" y="2305" width="100" height="40" as="geometry" />
        </mxCell>
        <mxCell id="t4iPXFJpdFiJiGYDeRWr-281" value="EMAIL" style="ellipse;whiteSpace=wrap;html=1;align=center;" vertex="1" parent="1">
          <mxGeometry x="3065" y="2350" width="100" height="40" as="geometry" />
        </mxCell>
        <mxCell id="t4iPXFJpdFiJiGYDeRWr-282" value="ADDRRESS" style="ellipse;whiteSpace=wrap;html=1;align=center;" vertex="1" parent="1">
          <mxGeometry x="3130" y="2410" width="100" height="40" as="geometry" />
        </mxCell>
        <mxCell id="t4iPXFJpdFiJiGYDeRWr-283" value="" style="endArrow=none;html=1;rounded=0;exitX=0;exitY=0;exitDx=0;exitDy=0;" edge="1" parent="1" source="t4iPXFJpdFiJiGYDeRWr-277" target="t4iPXFJpdFiJiGYDeRWr-177">
          <mxGeometry relative="1" as="geometry">
            <mxPoint x="3200" y="2750" as="sourcePoint" />
            <mxPoint x="3360" y="2750" as="targetPoint" />
          </mxGeometry>
        </mxCell>
        <mxCell id="t4iPXFJpdFiJiGYDeRWr-284" value="" style="endArrow=none;html=1;rounded=0;" edge="1" parent="1" source="t4iPXFJpdFiJiGYDeRWr-276" target="t4iPXFJpdFiJiGYDeRWr-177">
          <mxGeometry relative="1" as="geometry">
            <mxPoint x="3161.36" y="2760" as="sourcePoint" />
            <mxPoint x="3321.36" y="2760" as="targetPoint" />
          </mxGeometry>
        </mxCell>
        <mxCell id="t4iPXFJpdFiJiGYDeRWr-285" value="" style="endArrow=none;html=1;rounded=0;" edge="1" parent="1" source="t4iPXFJpdFiJiGYDeRWr-278" target="t4iPXFJpdFiJiGYDeRWr-177">
          <mxGeometry relative="1" as="geometry">
            <mxPoint x="3136.18" y="2750" as="sourcePoint" />
            <mxPoint x="3296.18" y="2750" as="targetPoint" />
          </mxGeometry>
        </mxCell>
        <mxCell id="t4iPXFJpdFiJiGYDeRWr-286" value="" style="endArrow=none;html=1;rounded=0;" edge="1" parent="1" source="t4iPXFJpdFiJiGYDeRWr-279" target="t4iPXFJpdFiJiGYDeRWr-177">
          <mxGeometry relative="1" as="geometry">
            <mxPoint x="3200" y="2750" as="sourcePoint" />
            <mxPoint x="3360" y="2750" as="targetPoint" />
          </mxGeometry>
        </mxCell>
        <mxCell id="t4iPXFJpdFiJiGYDeRWr-287" value="" style="endArrow=none;html=1;rounded=0;" edge="1" parent="1" source="t4iPXFJpdFiJiGYDeRWr-280" target="t4iPXFJpdFiJiGYDeRWr-177">
          <mxGeometry relative="1" as="geometry">
            <mxPoint x="3200" y="2750" as="sourcePoint" />
            <mxPoint x="3360" y="2750" as="targetPoint" />
          </mxGeometry>
        </mxCell>
        <mxCell id="t4iPXFJpdFiJiGYDeRWr-288" value="" style="endArrow=none;html=1;rounded=0;" edge="1" parent="1" source="t4iPXFJpdFiJiGYDeRWr-281" target="t4iPXFJpdFiJiGYDeRWr-177">
          <mxGeometry relative="1" as="geometry">
            <mxPoint x="3200" y="2750" as="sourcePoint" />
            <mxPoint x="3360" y="2750" as="targetPoint" />
          </mxGeometry>
        </mxCell>
        <mxCell id="t4iPXFJpdFiJiGYDeRWr-289" value="" style="endArrow=none;html=1;rounded=0;exitX=0;exitY=0.25;exitDx=0;exitDy=0;" edge="1" parent="1" source="t4iPXFJpdFiJiGYDeRWr-177" target="t4iPXFJpdFiJiGYDeRWr-282">
          <mxGeometry relative="1" as="geometry">
            <mxPoint x="3200" y="2750" as="sourcePoint" />
            <mxPoint x="3360" y="2750" as="targetPoint" />
          </mxGeometry>
        </mxCell>
        <mxCell id="t4iPXFJpdFiJiGYDeRWr-290" value="C_ID" style="ellipse;whiteSpace=wrap;html=1;align=center;fontStyle=4;" vertex="1" parent="1">
          <mxGeometry x="3761.36" y="1440" width="100" height="40" as="geometry" />
        </mxCell>
        <mxCell id="t4iPXFJpdFiJiGYDeRWr-291" value="COMPANY_NAME" style="ellipse;whiteSpace=wrap;html=1;align=center;" vertex="1" parent="1">
          <mxGeometry x="3690" y="1390" width="100" height="40" as="geometry" />
        </mxCell>
        <mxCell id="t4iPXFJpdFiJiGYDeRWr-292" value="CHARGES" style="ellipse;whiteSpace=wrap;html=1;align=center;" vertex="1" parent="1">
          <mxGeometry x="3560" y="1390" width="100" height="40" as="geometry" />
        </mxCell>
        <mxCell id="t4iPXFJpdFiJiGYDeRWr-293" value="DATE" style="ellipse;whiteSpace=wrap;html=1;align=center;" vertex="1" parent="1">
          <mxGeometry x="3480" y="1440" width="100" height="40" as="geometry" />
        </mxCell>
        <mxCell id="t4iPXFJpdFiJiGYDeRWr-294" value="" style="endArrow=none;html=1;rounded=0;" edge="1" parent="1" source="t4iPXFJpdFiJiGYDeRWr-290" target="t4iPXFJpdFiJiGYDeRWr-179">
          <mxGeometry relative="1" as="geometry">
            <mxPoint x="3560" y="1830" as="sourcePoint" />
            <mxPoint x="3720" y="1830" as="targetPoint" />
          </mxGeometry>
        </mxCell>
        <mxCell id="t4iPXFJpdFiJiGYDeRWr-295" value="" style="endArrow=none;html=1;rounded=0;entryX=0.5;entryY=0;entryDx=0;entryDy=0;" edge="1" parent="1" source="t4iPXFJpdFiJiGYDeRWr-291" target="t4iPXFJpdFiJiGYDeRWr-179">
          <mxGeometry relative="1" as="geometry">
            <mxPoint x="3510" y="1840" as="sourcePoint" />
            <mxPoint x="3670" y="1840" as="targetPoint" />
          </mxGeometry>
        </mxCell>
        <mxCell id="t4iPXFJpdFiJiGYDeRWr-296" value="" style="endArrow=none;html=1;rounded=0;" edge="1" parent="1" source="t4iPXFJpdFiJiGYDeRWr-292" target="t4iPXFJpdFiJiGYDeRWr-179">
          <mxGeometry relative="1" as="geometry">
            <mxPoint x="3510" y="1827.17" as="sourcePoint" />
            <mxPoint x="3670" y="1827.17" as="targetPoint" />
          </mxGeometry>
        </mxCell>
        <mxCell id="t4iPXFJpdFiJiGYDeRWr-297" value="" style="endArrow=none;html=1;rounded=0;entryX=0;entryY=0.25;entryDx=0;entryDy=0;" edge="1" parent="1" source="t4iPXFJpdFiJiGYDeRWr-293" target="t4iPXFJpdFiJiGYDeRWr-179">
          <mxGeometry relative="1" as="geometry">
            <mxPoint x="3560" y="1830" as="sourcePoint" />
            <mxPoint x="3720" y="1830" as="targetPoint" />
          </mxGeometry>
        </mxCell>
        <mxCell id="t4iPXFJpdFiJiGYDeRWr-298" value="SELLER_ID" style="ellipse;whiteSpace=wrap;html=1;align=center;fontStyle=4;" vertex="1" parent="1">
          <mxGeometry x="3266.18" y="1471" width="100" height="40" as="geometry" />
        </mxCell>
        <mxCell id="t4iPXFJpdFiJiGYDeRWr-299" value="NAME" style="ellipse;whiteSpace=wrap;html=1;align=center;" vertex="1" parent="1">
          <mxGeometry x="3250" y="1420" width="100" height="40" as="geometry" />
        </mxCell>
        <mxCell id="t4iPXFJpdFiJiGYDeRWr-300" value="ADDRESS" style="ellipse;whiteSpace=wrap;html=1;align=center;" vertex="1" parent="1">
          <mxGeometry x="3199" y="1378" width="100" height="40" as="geometry" />
        </mxCell>
        <mxCell id="t4iPXFJpdFiJiGYDeRWr-301" value="RATING" style="ellipse;whiteSpace=wrap;html=1;align=center;" vertex="1" parent="1">
          <mxGeometry x="3085" y="1378" width="100" height="40" as="geometry" />
        </mxCell>
        <mxCell id="t4iPXFJpdFiJiGYDeRWr-302" value="REVIEW" style="ellipse;whiteSpace=wrap;html=1;align=center;" vertex="1" parent="1">
          <mxGeometry x="3015" y="1418" width="100" height="40" as="geometry" />
        </mxCell>
        <mxCell id="t4iPXFJpdFiJiGYDeRWr-303" value="" style="endArrow=none;html=1;rounded=0;exitX=1;exitY=0.5;exitDx=0;exitDy=0;" edge="1" parent="1" source="t4iPXFJpdFiJiGYDeRWr-146" target="t4iPXFJpdFiJiGYDeRWr-298">
          <mxGeometry relative="1" as="geometry">
            <mxPoint x="3200" y="1620" as="sourcePoint" />
            <mxPoint x="3360" y="1620" as="targetPoint" />
          </mxGeometry>
        </mxCell>
        <mxCell id="t4iPXFJpdFiJiGYDeRWr-304" value="" style="endArrow=none;html=1;rounded=0;entryX=0;entryY=1;entryDx=0;entryDy=0;exitX=1;exitY=0;exitDx=0;exitDy=0;" edge="1" parent="1" source="t4iPXFJpdFiJiGYDeRWr-146" target="t4iPXFJpdFiJiGYDeRWr-299">
          <mxGeometry relative="1" as="geometry">
            <mxPoint x="3200" y="1620" as="sourcePoint" />
            <mxPoint x="3360" y="1620" as="targetPoint" />
          </mxGeometry>
        </mxCell>
        <mxCell id="t4iPXFJpdFiJiGYDeRWr-305" value="" style="endArrow=none;html=1;rounded=0;exitX=0.75;exitY=0;exitDx=0;exitDy=0;" edge="1" parent="1" source="t4iPXFJpdFiJiGYDeRWr-146" target="t4iPXFJpdFiJiGYDeRWr-300">
          <mxGeometry relative="1" as="geometry">
            <mxPoint x="3200" y="1620" as="sourcePoint" />
            <mxPoint x="3360" y="1620" as="targetPoint" />
          </mxGeometry>
        </mxCell>
        <mxCell id="t4iPXFJpdFiJiGYDeRWr-306" value="" style="endArrow=none;html=1;rounded=0;" edge="1" parent="1" source="t4iPXFJpdFiJiGYDeRWr-301" target="t4iPXFJpdFiJiGYDeRWr-146">
          <mxGeometry relative="1" as="geometry">
            <mxPoint x="3171.36" y="1570" as="sourcePoint" />
            <mxPoint x="3331.36" y="1570" as="targetPoint" />
          </mxGeometry>
        </mxCell>
        <mxCell id="t4iPXFJpdFiJiGYDeRWr-307" value="" style="endArrow=none;html=1;rounded=0;" edge="1" parent="1" source="t4iPXFJpdFiJiGYDeRWr-302" target="t4iPXFJpdFiJiGYDeRWr-146">
          <mxGeometry relative="1" as="geometry">
            <mxPoint x="3200" y="1620" as="sourcePoint" />
            <mxPoint x="3360" y="1620" as="targetPoint" />
          </mxGeometry>
        </mxCell>
        <mxCell id="t4iPXFJpdFiJiGYDeRWr-308" value="BRAND" style="shape=ext;margin=3;double=1;whiteSpace=wrap;html=1;align=center;" vertex="1" parent="1">
          <mxGeometry x="1815" y="1808" width="100" height="40" as="geometry" />
        </mxCell>
        <mxCell id="t4iPXFJpdFiJiGYDeRWr-309" value="QNA" style="shape=ext;margin=3;double=1;whiteSpace=wrap;html=1;align=center;" vertex="1" parent="1">
          <mxGeometry x="1820" y="1690" width="100" height="40" as="geometry" />
        </mxCell>
        <mxCell id="t4iPXFJpdFiJiGYDeRWr-310" value="COMBO" style="shape=ext;margin=3;double=1;whiteSpace=wrap;html=1;align=center;" vertex="1" parent="1">
          <mxGeometry x="1810" y="1400" width="100" height="40" as="geometry" />
        </mxCell>
        <mxCell id="t4iPXFJpdFiJiGYDeRWr-311" value="REVIEW" style="shape=ext;margin=3;double=1;whiteSpace=wrap;html=1;align=center;" vertex="1" parent="1">
          <mxGeometry x="1820" y="1560" width="100" height="40" as="geometry" />
        </mxCell>
        <mxCell id="t4iPXFJpdFiJiGYDeRWr-312" value="BEST_SELLING" style="shape=ext;margin=3;double=1;whiteSpace=wrap;html=1;align=center;" vertex="1" parent="1">
          <mxGeometry x="2374" y="1030" width="100" height="40" as="geometry" />
        </mxCell>
        <mxCell id="t4iPXFJpdFiJiGYDeRWr-313" value="Has" style="shape=rhombus;double=1;perimeter=rhombusPerimeter;whiteSpace=wrap;html=1;align=center;" vertex="1" parent="1">
          <mxGeometry x="2040" y="1548" width="120" height="60" as="geometry" />
        </mxCell>
        <mxCell id="t4iPXFJpdFiJiGYDeRWr-314" value="Has" style="shape=rhombus;double=1;perimeter=rhombusPerimeter;whiteSpace=wrap;html=1;align=center;" vertex="1" parent="1">
          <mxGeometry x="2050" y="1389" width="120" height="60" as="geometry" />
        </mxCell>
        <mxCell id="t4iPXFJpdFiJiGYDeRWr-315" value="Has" style="shape=rhombus;double=1;perimeter=rhombusPerimeter;whiteSpace=wrap;html=1;align=center;" vertex="1" parent="1">
          <mxGeometry x="2050" y="1677" width="120" height="60" as="geometry" />
        </mxCell>
        <mxCell id="t4iPXFJpdFiJiGYDeRWr-316" value="Has" style="shape=rhombus;double=1;perimeter=rhombusPerimeter;whiteSpace=wrap;html=1;align=center;" vertex="1" parent="1">
          <mxGeometry x="2050" y="1798" width="120" height="60" as="geometry" />
        </mxCell>
        <mxCell id="t4iPXFJpdFiJiGYDeRWr-317" value="Has" style="shape=rhombus;double=1;perimeter=rhombusPerimeter;whiteSpace=wrap;html=1;align=center;" vertex="1" parent="1">
          <mxGeometry x="2360" y="1150" width="120" height="60" as="geometry" />
        </mxCell>
        <mxCell id="t4iPXFJpdFiJiGYDeRWr-318" value="" style="endArrow=none;html=1;" edge="1" parent="1">
          <mxGeometry width="50" height="50" relative="1" as="geometry">
            <mxPoint x="2420" y="1150" as="sourcePoint" />
            <mxPoint x="2419" y="1070" as="targetPoint" />
          </mxGeometry>
        </mxCell>
        <mxCell id="t4iPXFJpdFiJiGYDeRWr-319" value="" style="endArrow=none;html=1;" edge="1" parent="1">
          <mxGeometry width="50" height="50" relative="1" as="geometry">
            <mxPoint x="2425" y="1150" as="sourcePoint" />
            <mxPoint x="2425" y="1070" as="targetPoint" />
          </mxGeometry>
        </mxCell>
        <mxCell id="t4iPXFJpdFiJiGYDeRWr-320" value="1" style="text;html=1;strokeColor=none;fillColor=none;align=center;verticalAlign=middle;whiteSpace=wrap;rounded=0;" vertex="1" parent="1">
          <mxGeometry x="2420" y="1330" width="40" height="20" as="geometry" />
        </mxCell>
        <mxCell id="t4iPXFJpdFiJiGYDeRWr-321" value="M" style="text;html=1;strokeColor=none;fillColor=none;align=center;verticalAlign=middle;whiteSpace=wrap;rounded=0;" vertex="1" parent="1">
          <mxGeometry x="2430" y="1080" width="40" height="20" as="geometry" />
        </mxCell>
        <mxCell id="t4iPXFJpdFiJiGYDeRWr-322" value="1" style="text;html=1;strokeColor=none;fillColor=none;align=center;verticalAlign=middle;whiteSpace=wrap;rounded=0;" vertex="1" parent="1">
          <mxGeometry x="2474" y="1350" width="40" height="20" as="geometry" />
        </mxCell>
        <mxCell id="t4iPXFJpdFiJiGYDeRWr-323" value="M" style="text;html=1;strokeColor=none;fillColor=none;align=center;verticalAlign=middle;whiteSpace=wrap;rounded=0;" vertex="1" parent="1">
          <mxGeometry x="2640" y="1350" width="40" height="20" as="geometry" />
        </mxCell>
        <mxCell id="t4iPXFJpdFiJiGYDeRWr-324" value="M" style="text;html=1;strokeColor=none;fillColor=none;align=center;verticalAlign=middle;whiteSpace=wrap;rounded=0;" vertex="1" parent="1">
          <mxGeometry x="2440" y="1410" width="40" height="20" as="geometry" />
        </mxCell>
        <mxCell id="t4iPXFJpdFiJiGYDeRWr-325" value="N" style="text;html=1;strokeColor=none;fillColor=none;align=center;verticalAlign=middle;whiteSpace=wrap;rounded=0;" vertex="1" parent="1">
          <mxGeometry x="2430" y="1695" width="40" height="20" as="geometry" />
        </mxCell>
        <mxCell id="t4iPXFJpdFiJiGYDeRWr-326" value="M" style="text;html=1;strokeColor=none;fillColor=none;align=center;verticalAlign=middle;whiteSpace=wrap;rounded=0;" vertex="1" parent="1">
          <mxGeometry x="1910" y="1390" width="40" height="20" as="geometry" />
        </mxCell>
        <mxCell id="t4iPXFJpdFiJiGYDeRWr-327" value="M" style="text;html=1;strokeColor=none;fillColor=none;align=center;verticalAlign=middle;whiteSpace=wrap;rounded=0;" vertex="1" parent="1">
          <mxGeometry x="2010" y="1551" width="40" height="20" as="geometry" />
        </mxCell>
        <mxCell id="t4iPXFJpdFiJiGYDeRWr-328" value="M" style="text;html=1;strokeColor=none;fillColor=none;align=center;verticalAlign=middle;whiteSpace=wrap;rounded=0;" vertex="1" parent="1">
          <mxGeometry x="2010" y="1677" width="40" height="20" as="geometry" />
        </mxCell>
        <mxCell id="t4iPXFJpdFiJiGYDeRWr-329" value="1" style="text;html=1;strokeColor=none;fillColor=none;align=center;verticalAlign=middle;whiteSpace=wrap;rounded=0;" vertex="1" parent="1">
          <mxGeometry x="1930" y="1805" width="40" height="20" as="geometry" />
        </mxCell>
        <mxCell id="t4iPXFJpdFiJiGYDeRWr-330" value="1" style="text;html=1;strokeColor=none;fillColor=none;align=center;verticalAlign=middle;whiteSpace=wrap;rounded=0;" vertex="1" parent="1">
          <mxGeometry x="2364" y="1798" width="40" height="20" as="geometry" />
        </mxCell>
        <mxCell id="t4iPXFJpdFiJiGYDeRWr-331" value="1" style="text;html=1;strokeColor=none;fillColor=none;align=center;verticalAlign=middle;whiteSpace=wrap;rounded=0;" vertex="1" parent="1">
          <mxGeometry x="2240" y="1490" width="40" height="20" as="geometry" />
        </mxCell>
        <mxCell id="t4iPXFJpdFiJiGYDeRWr-332" value="1" style="text;html=1;strokeColor=none;fillColor=none;align=center;verticalAlign=middle;whiteSpace=wrap;rounded=0;" vertex="1" parent="1">
          <mxGeometry x="2200" y="1638" width="40" height="20" as="geometry" />
        </mxCell>
        <mxCell id="t4iPXFJpdFiJiGYDeRWr-333" value="1" style="text;html=1;strokeColor=none;fillColor=none;align=center;verticalAlign=middle;whiteSpace=wrap;rounded=0;" vertex="1" parent="1">
          <mxGeometry x="2170" y="1740" width="40" height="20" as="geometry" />
        </mxCell>
        <mxCell id="t4iPXFJpdFiJiGYDeRWr-334" value="1" style="text;html=1;strokeColor=none;fillColor=none;align=center;verticalAlign=middle;whiteSpace=wrap;rounded=0;" vertex="1" parent="1">
          <mxGeometry x="2414" y="1946" width="40" height="20" as="geometry" />
        </mxCell>
        <mxCell id="t4iPXFJpdFiJiGYDeRWr-335" value="M" style="text;html=1;strokeColor=none;fillColor=none;align=center;verticalAlign=middle;whiteSpace=wrap;rounded=0;" vertex="1" parent="1">
          <mxGeometry x="2425" y="1818" width="40" height="20" as="geometry" />
        </mxCell>
        <mxCell id="t4iPXFJpdFiJiGYDeRWr-336" value="1" style="text;html=1;strokeColor=none;fillColor=none;align=center;verticalAlign=middle;whiteSpace=wrap;rounded=0;" vertex="1" parent="1">
          <mxGeometry x="2210" y="2080" width="40" height="20" as="geometry" />
        </mxCell>
        <mxCell id="t4iPXFJpdFiJiGYDeRWr-337" value="M" style="text;html=1;strokeColor=none;fillColor=none;align=center;verticalAlign=middle;whiteSpace=wrap;rounded=0;" vertex="1" parent="1">
          <mxGeometry x="2021" y="2081" width="40" height="20" as="geometry" />
        </mxCell>
        <mxCell id="t4iPXFJpdFiJiGYDeRWr-338" value="Can Contact" style="rhombus;whiteSpace=wrap;html=1;shadow=0;" vertex="1" parent="1">
          <mxGeometry x="2380" y="2300" width="80" height="80" as="geometry" />
        </mxCell>
        <mxCell id="t4iPXFJpdFiJiGYDeRWr-339" style="edgeStyle=orthogonalEdgeStyle;rounded=0;orthogonalLoop=1;jettySize=auto;html=1;entryX=0.5;entryY=1;entryDx=0;entryDy=0;endArrow=none;endFill=0;" edge="1" parent="1" target="t4iPXFJpdFiJiGYDeRWr-338">
          <mxGeometry relative="1" as="geometry">
            <mxPoint x="2420.0000000000005" y="2430" as="sourcePoint" />
            <mxPoint x="2420.0000000000005" y="2091" as="targetPoint" />
          </mxGeometry>
        </mxCell>
        <mxCell id="t4iPXFJpdFiJiGYDeRWr-340" value="1" style="text;html=1;strokeColor=none;fillColor=none;align=center;verticalAlign=middle;whiteSpace=wrap;rounded=0;" vertex="1" parent="1">
          <mxGeometry x="2414" y="2100" width="40" height="20" as="geometry" />
        </mxCell>
        <mxCell id="t4iPXFJpdFiJiGYDeRWr-341" value="1" style="text;html=1;strokeColor=none;fillColor=none;align=center;verticalAlign=middle;whiteSpace=wrap;rounded=0;" vertex="1" parent="1">
          <mxGeometry x="2418.5" y="2560" width="40" height="20" as="geometry" />
        </mxCell>
        <mxCell id="t4iPXFJpdFiJiGYDeRWr-342" value="1" style="text;html=1;strokeColor=none;fillColor=none;align=center;verticalAlign=middle;whiteSpace=wrap;rounded=0;" vertex="1" parent="1">
          <mxGeometry x="2620" y="1798" width="40" height="20" as="geometry" />
        </mxCell>
        <mxCell id="t4iPXFJpdFiJiGYDeRWr-343" value="M" style="text;html=1;strokeColor=none;fillColor=none;align=center;verticalAlign=middle;whiteSpace=wrap;rounded=0;" vertex="1" parent="1">
          <mxGeometry x="3064" y="1480" width="40" height="20" as="geometry" />
        </mxCell>
        <mxCell id="t4iPXFJpdFiJiGYDeRWr-344" value="M" style="text;html=1;strokeColor=none;fillColor=none;align=center;verticalAlign=middle;whiteSpace=wrap;rounded=0;" vertex="1" parent="1">
          <mxGeometry x="2680" y="1725" width="40" height="20" as="geometry" />
        </mxCell>
        <mxCell id="t4iPXFJpdFiJiGYDeRWr-345" value="1" style="text;html=1;strokeColor=none;fillColor=none;align=center;verticalAlign=middle;whiteSpace=wrap;rounded=0;" vertex="1" parent="1">
          <mxGeometry x="2890" y="1725" width="40" height="20" as="geometry" />
        </mxCell>
        <mxCell id="t4iPXFJpdFiJiGYDeRWr-346" value="1" style="text;html=1;strokeColor=none;fillColor=none;align=center;verticalAlign=middle;whiteSpace=wrap;rounded=0;" vertex="1" parent="1">
          <mxGeometry x="3480" y="2060" width="40" height="20" as="geometry" />
        </mxCell>
        <mxCell id="t4iPXFJpdFiJiGYDeRWr-347" value="1" style="text;html=1;strokeColor=none;fillColor=none;align=center;verticalAlign=middle;whiteSpace=wrap;rounded=0;" vertex="1" parent="1">
          <mxGeometry x="3236.18" y="1971" width="40" height="20" as="geometry" />
        </mxCell>
        <mxCell id="t4iPXFJpdFiJiGYDeRWr-348" value="1" style="text;html=1;strokeColor=none;fillColor=none;align=center;verticalAlign=middle;whiteSpace=wrap;rounded=0;" vertex="1" parent="1">
          <mxGeometry x="3210" y="1730" width="40" height="20" as="geometry" />
        </mxCell>
        <mxCell id="t4iPXFJpdFiJiGYDeRWr-349" value="1" style="text;html=1;strokeColor=none;fillColor=none;align=center;verticalAlign=middle;whiteSpace=wrap;rounded=0;" vertex="1" parent="1">
          <mxGeometry x="3821.36" y="1728" width="40" height="20" as="geometry" />
        </mxCell>
        <mxCell id="t4iPXFJpdFiJiGYDeRWr-350" value="M" style="text;html=1;strokeColor=none;fillColor=none;align=center;verticalAlign=middle;whiteSpace=wrap;rounded=0;" vertex="1" parent="1">
          <mxGeometry x="3421.3599999999997" y="1936" width="40" height="20" as="geometry" />
        </mxCell>
        <mxCell id="t4iPXFJpdFiJiGYDeRWr-351" value="N" style="text;html=1;strokeColor=none;fillColor=none;align=center;verticalAlign=middle;whiteSpace=wrap;rounded=0;" vertex="1" parent="1">
          <mxGeometry x="3679.9999999999995" y="1570" width="40" height="20" as="geometry" />
        </mxCell>
        <mxCell id="t4iPXFJpdFiJiGYDeRWr-352" value="1" style="text;html=1;strokeColor=none;fillColor=none;align=center;verticalAlign=middle;whiteSpace=wrap;rounded=0;" vertex="1" parent="1">
          <mxGeometry x="3761.36" y="2058" width="40" height="20" as="geometry" />
        </mxCell>
        <mxCell id="t4iPXFJpdFiJiGYDeRWr-353" value="1" style="text;html=1;strokeColor=none;fillColor=none;align=center;verticalAlign=middle;whiteSpace=wrap;rounded=0;" vertex="1" parent="1">
          <mxGeometry x="3245" y="2120" width="40" height="20" as="geometry" />
        </mxCell>
        <mxCell id="t4iPXFJpdFiJiGYDeRWr-354" value="1" style="text;html=1;strokeColor=none;fillColor=none;align=center;verticalAlign=middle;whiteSpace=wrap;rounded=0;" vertex="1" parent="1">
          <mxGeometry x="3770" y="2253" width="40" height="20" as="geometry" />
        </mxCell>
        <mxCell id="t4iPXFJpdFiJiGYDeRWr-355" value="1" style="text;html=1;strokeColor=none;fillColor=none;align=center;verticalAlign=middle;whiteSpace=wrap;rounded=0;" vertex="1" parent="1">
          <mxGeometry x="2595" y="2041" width="40" height="20" as="geometry" />
        </mxCell>
        <mxCell id="t4iPXFJpdFiJiGYDeRWr-356" value="M" style="text;html=1;strokeColor=none;fillColor=none;align=center;verticalAlign=middle;whiteSpace=wrap;rounded=0;" vertex="1" parent="1">
          <mxGeometry x="2980" y="2041" width="40" height="20" as="geometry" />
        </mxCell>
        <mxCell id="t4iPXFJpdFiJiGYDeRWr-357" value="1" style="text;html=1;strokeColor=none;fillColor=none;align=center;verticalAlign=middle;whiteSpace=wrap;rounded=0;" vertex="1" parent="1">
          <mxGeometry x="2964" y="2420" width="40" height="20" as="geometry" />
        </mxCell>
        <mxCell id="t4iPXFJpdFiJiGYDeRWr-358" value="M" style="text;html=1;strokeColor=none;fillColor=none;align=center;verticalAlign=middle;whiteSpace=wrap;rounded=0;" vertex="1" parent="1">
          <mxGeometry x="2635" y="2170" width="40" height="20" as="geometry" />
        </mxCell>
        <mxCell id="t4iPXFJpdFiJiGYDeRWr-359" value="1" style="text;html=1;strokeColor=none;fillColor=none;align=center;verticalAlign=middle;whiteSpace=wrap;rounded=0;" vertex="1" parent="1">
          <mxGeometry x="2780" y="2420" width="40" height="20" as="geometry" />
        </mxCell>
        <mxCell id="t4iPXFJpdFiJiGYDeRWr-360" value="M" style="text;html=1;strokeColor=none;fillColor=none;align=center;verticalAlign=middle;whiteSpace=wrap;rounded=0;" vertex="1" parent="1">
          <mxGeometry x="2555" y="1920" width="40" height="20" as="geometry" />
        </mxCell>
        <mxCell id="t4iPXFJpdFiJiGYDeRWr-361" value="1" style="text;html=1;strokeColor=none;fillColor=none;align=center;verticalAlign=middle;whiteSpace=wrap;rounded=0;" vertex="1" parent="1">
          <mxGeometry x="3200" y="2510" width="40" height="20" as="geometry" />
        </mxCell>
        <mxCell id="t4iPXFJpdFiJiGYDeRWr-362" value="M" style="text;html=1;strokeColor=none;fillColor=none;align=center;verticalAlign=middle;whiteSpace=wrap;rounded=0;" vertex="1" parent="1">
          <mxGeometry x="3981.36" y="2500" width="40" height="20" as="geometry" />
        </mxCell>
        <mxCell id="t4iPXFJpdFiJiGYDeRWr-363" value="1" style="text;html=1;strokeColor=none;fillColor=none;align=center;verticalAlign=middle;whiteSpace=wrap;rounded=0;" vertex="1" parent="1">
          <mxGeometry x="3160" y="2590" width="40" height="20" as="geometry" />
        </mxCell>
        <mxCell id="t4iPXFJpdFiJiGYDeRWr-364" value="M" style="text;html=1;strokeColor=none;fillColor=none;align=center;verticalAlign=middle;whiteSpace=wrap;rounded=0;" vertex="1" parent="1">
          <mxGeometry x="3470" y="2430" width="40" height="20" as="geometry" />
        </mxCell>
        <mxCell id="t4iPXFJpdFiJiGYDeRWr-365" value="1" style="text;html=1;strokeColor=none;fillColor=none;align=center;verticalAlign=middle;whiteSpace=wrap;rounded=0;" vertex="1" parent="1">
          <mxGeometry x="3004" y="2600" width="40" height="20" as="geometry" />
        </mxCell>
        <mxCell id="t4iPXFJpdFiJiGYDeRWr-366" value="M" style="text;html=1;strokeColor=none;fillColor=none;align=center;verticalAlign=middle;whiteSpace=wrap;rounded=0;" vertex="1" parent="1">
          <mxGeometry x="2675" y="2720" width="40" height="20" as="geometry" />
        </mxCell>
        <mxCell id="t4iPXFJpdFiJiGYDeRWr-367" value="1" style="text;html=1;strokeColor=none;fillColor=none;align=center;verticalAlign=middle;whiteSpace=wrap;rounded=0;" vertex="1" parent="1">
          <mxGeometry x="2910" y="2590" width="40" height="20" as="geometry" />
        </mxCell>
        <mxCell id="t4iPXFJpdFiJiGYDeRWr-368" value="M" style="text;html=1;strokeColor=none;fillColor=none;align=center;verticalAlign=middle;whiteSpace=wrap;rounded=0;" vertex="1" parent="1">
          <mxGeometry x="2800" y="2910" width="40" height="20" as="geometry" />
        </mxCell>
        <mxCell id="t4iPXFJpdFiJiGYDeRWr-369" value="M" style="text;html=1;strokeColor=none;fillColor=none;align=center;verticalAlign=middle;whiteSpace=wrap;rounded=0;" vertex="1" parent="1">
          <mxGeometry x="2550" y="2262" width="40" height="20" as="geometry" />
        </mxCell>
        <mxCell id="t4iPXFJpdFiJiGYDeRWr-370" value="N" style="text;html=1;strokeColor=none;fillColor=none;align=center;verticalAlign=middle;whiteSpace=wrap;rounded=0;" vertex="1" parent="1">
          <mxGeometry x="3080" y="2410" width="40" height="20" as="geometry" />
        </mxCell>
        <mxCell id="t4iPXFJpdFiJiGYDeRWr-371" value="M" style="text;html=1;strokeColor=none;fillColor=none;align=center;verticalAlign=middle;whiteSpace=wrap;rounded=0;" vertex="1" parent="1">
          <mxGeometry x="3321.36" y="2430" width="40" height="20" as="geometry" />
        </mxCell>
        <mxCell id="t4iPXFJpdFiJiGYDeRWr-372" value="" style="shape=link;html=1;rounded=0;endArrow=none;endFill=0;" edge="1" parent="1">
          <mxGeometry relative="1" as="geometry">
            <mxPoint x="1914.9999999999995" y="1576.3300000000004" as="sourcePoint" />
            <mxPoint x="2050" y="1576" as="targetPoint" />
          </mxGeometry>
        </mxCell>
        <mxCell id="t4iPXFJpdFiJiGYDeRWr-373" value="" style="shape=link;html=1;rounded=0;endArrow=none;endFill=0;entryX=0;entryY=0.5;entryDx=0;entryDy=0;exitX=1;exitY=0.5;exitDx=0;exitDy=0;" edge="1" parent="1" source="t4iPXFJpdFiJiGYDeRWr-310" target="t4iPXFJpdFiJiGYDeRWr-314">
          <mxGeometry relative="1" as="geometry">
            <mxPoint x="1910" y="1410" as="sourcePoint" />
            <mxPoint x="2070" y="1410" as="targetPoint" />
          </mxGeometry>
        </mxCell>
        <mxCell id="t4iPXFJpdFiJiGYDeRWr-374" value="" style="shape=link;html=1;rounded=0;endArrow=none;endFill=0;entryX=0;entryY=0.5;entryDx=0;entryDy=0;" edge="1" parent="1" target="t4iPXFJpdFiJiGYDeRWr-315">
          <mxGeometry relative="1" as="geometry">
            <mxPoint x="1920" y="1709" as="sourcePoint" />
            <mxPoint x="2080" y="1709" as="targetPoint" />
          </mxGeometry>
        </mxCell>
        <mxCell id="t4iPXFJpdFiJiGYDeRWr-375" value="" style="resizable=0;html=1;align=right;verticalAlign=bottom;" connectable="0" vertex="1" parent="t4iPXFJpdFiJiGYDeRWr-374">
          <mxGeometry x="1" relative="1" as="geometry" />
        </mxCell>
        <mxCell id="t4iPXFJpdFiJiGYDeRWr-376" value="" style="shape=link;html=1;rounded=0;endArrow=none;endFill=0;entryX=0;entryY=0.5;entryDx=0;entryDy=0;" edge="1" parent="1" source="t4iPXFJpdFiJiGYDeRWr-308" target="t4iPXFJpdFiJiGYDeRWr-316">
          <mxGeometry relative="1" as="geometry">
            <mxPoint x="1915" y="1828" as="sourcePoint" />
            <mxPoint x="2075" y="1828" as="targetPoint" />
          </mxGeometry>
        </mxCell>
        <mxCell id="t4iPXFJpdFiJiGYDeRWr-377" value="" style="resizable=0;html=1;align=right;verticalAlign=bottom;" connectable="0" vertex="1" parent="t4iPXFJpdFiJiGYDeRWr-376">
          <mxGeometry x="1" relative="1" as="geometry" />
        </mxCell>
      </root>
    </mxGraphModel>
  </diagram>
</mxfile>
